<svg width="175" height="86" viewBox="0 0 175 86" fill="none"><path d="M38.35 0.0034418H43.3459V26.1968H38.35V0.0034418ZM0 29.4176V33.891H7.90494V55.6144H12.9423V33.8876H20.8507V29.4142L0 29.4176ZM44.6898 0.0034418V4.47682H53.2098V26.2002H58.2125V4.47338H66.7325V0L44.6898 0.0034418ZM19.5067 44.1763H27.8919C27.7433 41.7951 26.1644 40.1468 23.8841 40.1468C21.2342 40.1468 19.9489 41.7229 19.5067 44.1763ZM14.5039 46.1928C14.5039 40.6252 18.3044 36.3032 23.8081 36.3032C29.8785 36.3032 33.1123 40.9176 33.1123 47.6243H19.4307C19.7969 50.5182 21.4173 52.3144 24.2503 52.3144C26.1989 52.3144 27.3391 51.4335 27.8919 50.0055H32.8221C32.1311 53.3399 29.1425 56.1581 24.2883 56.1581C18.0349 56.1581 14.5039 51.7983 14.5039 46.179V46.1928ZM34.052 46.2169C34.052 51.8224 37.7661 56.1443 43.7259 56.1443C48.7667 56.1443 51.89 52.9579 52.2216 48.9628H47.402C47.0565 51.0894 45.6365 52.1493 43.6015 52.1493C40.5474 52.1493 39.1101 49.7681 39.1101 46.2134C39.1101 42.5866 40.6545 40.2776 43.6706 40.2776C44.4993 40.2671 45.3041 40.5536 45.9383 41.0849C46.5725 41.6161 46.9939 42.3567 47.1256 43.1715H52.0178C51.3545 39.1042 48.3383 36.2894 43.4495 36.2894C37.7108 36.2894 34.0348 40.6114 34.0348 46.2169H34.052ZM58.1814 29.4039H53.1959V55.5972H58.1987V44.9299C58.1987 42.3663 59.8156 40.608 62.0234 40.608C64.1205 40.608 65.2987 42.036 65.2987 44.049V55.5869H70.3014V43.3402C70.3014 39.2384 67.6895 36.3066 63.7923 36.3066C61.2183 36.3066 59.674 37.2942 58.3127 39.2728H58.2022L58.1814 29.4039ZM76.6966 36.8056H71.8182V55.5972H76.8209V44.9299C76.8209 42.3663 78.4379 40.608 80.6456 40.608C82.7427 40.608 83.9209 42.036 83.9209 44.049V55.5869H88.9133V43.3402C88.9133 39.2384 86.3013 36.3066 82.4041 36.3066C79.8302 36.3066 78.1027 37.3699 76.814 39.3829H76.7035L76.6966 36.8056ZM104.485 46.241C104.485 42.5762 102.757 40.0884 99.7031 40.0884C96.6489 40.0884 94.9214 42.5797 94.9214 46.241C94.9214 49.9023 96.6144 52.3592 99.7031 52.3592C102.792 52.3592 104.485 49.9057 104.485 46.241ZM89.8461 46.241C89.8461 40.6355 93.8539 36.3135 99.7031 36.3135C105.552 36.3135 109.56 40.6355 109.56 46.241C109.56 51.8465 105.552 56.1684 99.7031 56.1684C93.8539 56.1684 89.8461 51.8361 89.8461 46.241ZM110.576 55.6179H115.579V29.4176H110.593L110.576 55.6179ZM131.264 46.241C131.264 42.5762 129.537 40.0884 126.482 40.0884C123.428 40.0884 121.701 42.5694 121.701 46.241C121.701 49.9126 123.394 52.3592 126.482 52.3592C129.571 52.3592 131.264 49.9057 131.264 46.241ZM116.625 46.241C116.625 40.6355 120.633 36.3135 126.482 36.3135C132.332 36.3135 136.339 40.6355 136.339 46.241C136.339 51.8465 132.332 56.1684 126.482 56.1684C120.633 56.1684 116.625 51.8361 116.625 46.241ZM150.684 45.3979C150.684 42.6451 149.213 40.3051 146.193 40.3051C143.654 40.3051 141.964 42.2837 141.964 45.4323C141.964 48.5809 143.657 50.4872 146.231 50.4872C149.396 50.4872 150.681 48.1783 150.681 45.3945L150.684 45.3979ZM137.476 56.165H142.441C142.845 57.3384 143.913 58.2537 146.241 58.2537C149.074 58.2537 150.436 56.8979 150.436 54.3343V52.2697H150.325C149.728 52.9888 148.973 53.5612 148.118 53.9425C147.263 54.3238 146.331 54.5038 145.395 54.4685C141.201 54.4685 137.082 51.172 137.082 45.4943C137.082 39.8888 140.465 36.2997 145.246 36.2997C147.599 36.2997 149.33 37.2151 150.47 38.7911H150.543V36.8125H155.362V54.1761C155.362 56.8119 154.516 58.6081 153.12 59.8917C151.538 61.3575 149.112 62.0148 146.317 62.0148C141.169 62.0148 138.005 59.8159 137.49 56.165H137.476ZM157.954 61.7705H160.897C164.722 61.7705 166.121 60.2702 167.555 56.0927L174.14 36.8228H169.089L166.439 45.2844C165.852 47.0049 165.337 49.3861 165.337 49.3861H165.268C165.268 49.3861 164.642 47.0049 164.055 45.2844L161.26 36.8228H155.995L161.07 50.1947C162.138 53.0508 162.504 54.2621 162.504 55.2875C162.504 56.8257 161.695 57.8511 159.709 57.8511H157.943L157.954 61.7705ZM13.1185 70.5899H19.5274C22.3225 70.5899 23.7528 69.3098 23.7528 67.0009C23.7528 64.6197 22.2465 63.4463 19.6069 63.4463H13.1185V70.5899ZM18.3493 74.9119H13.1185V85.0217H7.89803V58.8318H19.7451C23.0964 58.8318 25.0795 59.7093 26.6239 61.2853C27.3808 62.0243 27.9795 62.9084 28.3839 63.8843C28.7882 64.8601 28.9899 65.9074 28.9767 66.963C28.9767 70.6278 27.0834 73.1329 23.7735 74.2306L30.338 85.0217H24.4645L18.3493 74.9119ZM33.6754 73.594H42.0606C41.9121 71.2127 40.3331 69.5645 38.0529 69.5645C35.4029 69.5645 34.1177 71.1405 33.6754 73.594ZM28.6727 75.607C28.6727 70.0393 32.4731 65.7174 37.9769 65.7174C44.0472 65.7174 47.2811 70.3318 47.2811 77.035H33.5994C33.9657 79.9289 35.586 81.7252 38.4191 81.7252C40.3677 81.7252 41.5078 80.8477 42.0606 79.4162H46.9908C46.2999 82.7506 43.3113 85.5688 38.4571 85.5688C32.2036 85.5688 28.6727 81.209 28.6727 75.5898V75.607ZM52.7883 85.0045H57.5699L64.5731 66.2094H59.5738L55.2551 78.9414H55.1825L50.9088 66.2335H45.8231L52.7883 85.0045ZM65.2952 85.0045H70.298V66.2335H65.2952V85.0045ZM65.2952 64.9225H70.298V60.4491H65.2952V64.9225ZM76.4029 73.5768H84.7881C84.6395 71.1955 83.0606 69.5473 80.7803 69.5473C78.1304 69.5473 76.8451 71.1233 76.4029 73.5768ZM71.4001 75.5898C71.4001 70.0221 75.2006 65.7002 80.7043 65.7002C86.7712 65.7002 90.0085 70.3146 90.0085 77.0178H76.3269C76.6931 79.9117 78.3135 81.708 81.1465 81.708C83.0951 81.708 84.2353 80.8305 84.7881 79.399H89.7183C89.0273 82.7334 86.0388 85.5516 81.1845 85.5516C74.9311 85.5516 71.4001 81.1918 71.4001 75.5726V75.5898ZM94.2616 84.9873H98.7875L102.242 72.6718H102.315L105.663 84.9873H110.223L115.862 66.2335H111.001L107.764 78.2428H107.691L104.343 66.2439H100.076L96.9115 78.2428H96.8389L93.7295 66.2439H88.7474L94.2616 84.9873ZM28.7971 0.0034418L22.5781 19.2046L16.0794 0.0034418H7.89803V26.1968H12.735V5.45752L19.8245 26.1968H24.9379L31.6992 5.45752V26.1968H36.664V0.0034418H28.7971Z" fill="black"></path></svg>