<?xml version="1.0" encoding="UTF-8"?>
<svg xmlns="http://www.w3.org/2000/svg" xmlns:xlink="http://www.w3.org/1999/xlink" width="184px" height="53px" viewBox="0 0 183 53" version="1.1">
<g id="surface1">
<path style=" stroke:none;fill-rule:nonzero;fill:rgb(100%,100%,100%);fill-opacity:1;" d="M 55.695312 44.105469 L 56.664062 44.105469 L 57.453125 35.242188 L 56.21875 35.242188 L 56.3125 34.269531 L 59.828125 34.269531 C 62.175781 34.269531 63.285156 35.289062 63.285156 37.15625 C 63.285156 38.855469 62.382812 40.691406 59.230469 40.691406 C 58.890625 40.699219 58.546875 40.671875 58.210938 40.617188 L 57.902344 44.105469 L 59.136719 44.105469 L 59.046875 45.082031 L 55.597656 45.082031 Z M 58.300781 39.675781 C 58.5625 39.710938 58.824219 39.726562 59.089844 39.722656 C 60.878906 39.722656 62.050781 38.964844 62.050781 37.203125 C 62.050781 36.507812 61.851562 36.027344 61.449219 35.703125 C 61.046875 35.378906 60.507812 35.253906 59.566406 35.253906 L 58.6875 35.253906 Z M 58.300781 39.675781 "/>
<path style=" stroke:none;fill-rule:nonzero;fill:rgb(100%,100%,100%);fill-opacity:1;" d="M 67.699219 36.957031 C 69.9375 36.957031 70.679688 38.839844 70.679688 40.523438 C 70.679688 43.132812 69.382812 45.234375 66.992188 45.234375 C 64.753906 45.234375 64.011719 43.351562 64.011719 41.683594 C 64.011719 39.132812 65.308594 36.957031 67.699219 36.957031 Z M 67.082031 44.183594 C 68.210938 44.183594 69.445312 43.335938 69.445312 40.460938 C 69.445312 38.777344 68.640625 38.007812 67.609375 38.007812 C 66.480469 38.007812 65.246094 38.855469 65.246094 41.726562 C 65.246094 43.410156 66.050781 44.183594 67.082031 44.183594 Z M 67.082031 44.183594 "/>
<path style=" stroke:none;fill-rule:nonzero;fill:rgb(100%,100%,100%);fill-opacity:1;" d="M 73.335938 34.175781 L 71.914062 34.175781 L 72.007812 33.203125 L 74.632812 33.203125 L 73.675781 44.105469 L 74.859375 44.105469 L 74.765625 45.082031 L 72.382812 45.082031 Z M 73.335938 34.175781 "/>
<path style=" stroke:none;fill-rule:nonzero;fill:rgb(100%,100%,100%);fill-opacity:1;" d="M 77.410156 38.082031 L 76.175781 38.082031 L 76.265625 37.109375 L 78.6875 37.109375 L 78.054688 44.097656 L 79.226562 44.097656 L 79.136719 45.074219 L 76.777344 45.074219 Z M 79.199219 33.960938 C 79.203125 34.445312 78.808594 34.84375 78.320312 34.84375 C 77.835938 34.84375 77.4375 34.449219 77.4375 33.960938 C 77.4375 33.476562 77.832031 33.082031 78.320312 33.082031 C 78.804688 33.085938 79.195312 33.476562 79.199219 33.960938 Z M 79.199219 33.960938 "/>
<path style=" stroke:none;fill-rule:nonzero;fill:rgb(100%,100%,100%);fill-opacity:1;" d="M 84.996094 38.023438 C 84.761719 37.957031 84.515625 37.925781 84.269531 37.929688 C 82.449219 37.929688 81.648438 39.519531 81.648438 41.589844 C 81.648438 43.460938 82.527344 44.183594 83.652344 44.183594 C 84.375 44.144531 85.074219 43.945312 85.707031 43.597656 L 85.597656 44.695312 C 84.917969 45.058594 84.160156 45.242188 83.390625 45.234375 C 81.152344 45.234375 80.414062 43.351562 80.414062 41.683594 C 80.414062 39.074219 81.710938 36.949219 84.320312 36.949219 C 84.921875 36.949219 85.519531 37.042969 86.089844 37.226562 L 85.9375 39.234375 L 84.9375 39.234375 Z M 84.996094 38.023438 "/>
<path style=" stroke:none;fill-rule:nonzero;fill:rgb(100%,100%,100%);fill-opacity:1;" d="M 86.273438 48.042969 C 86.5625 48.132812 86.867188 48.175781 87.171875 48.167969 C 87.867188 48.167969 88.5 47.875 89.273438 46.269531 L 89.734375 45.296875 L 87.683594 38.082031 L 86.511719 38.082031 L 86.601562 37.109375 L 88.761719 37.109375 L 90.230469 42.902344 C 90.34375 43.265625 90.40625 43.648438 90.414062 44.03125 L 90.445312 44.03125 C 90.582031 43.578125 90.691406 43.179688 90.832031 42.792969 L 92.683594 38.082031 L 91.347656 38.082031 L 91.441406 37.109375 L 93.894531 37.109375 L 93.800781 38.082031 L 92.492188 41.3125 C 89.882812 47.78125 89.234375 49.140625 87.121094 49.140625 C 86.804688 49.136719 86.488281 49.097656 86.179688 49.019531 Z M 86.273438 48.042969 "/>
<path style=" stroke:none;fill-rule:nonzero;fill:rgb(100%,100%,100%);fill-opacity:1;" d="M 104.871094 34.050781 C 108 34.050781 109.207031 36.371094 109.207031 38.980469 C 109.207031 42.824219 107.046875 45.292969 103.957031 45.292969 C 100.867188 45.292969 99.640625 42.980469 99.640625 40.367188 C 99.640625 36.523438 101.796875 34.050781 104.871094 34.050781 Z M 104.761719 35.101562 C 102.523438 35.101562 100.964844 36.972656 100.964844 40.382812 C 100.964844 43.167969 102.351562 44.246094 104.066406 44.246094 C 106.316406 44.246094 107.878906 42.378906 107.878906 38.949219 C 107.878906 36.183594 106.488281 35.101562 104.761719 35.101562 Z M 104.761719 35.101562 "/>
<path style=" stroke:none;fill-rule:nonzero;fill:rgb(100%,100%,100%);fill-opacity:1;" d="M 110.703125 33.203125 L 113.328125 33.203125 C 113.003906 36.152344 113.003906 38.453125 112.523438 40.785156 L 112.554688 40.785156 C 113.203125 38.378906 114.359375 36.953125 115.902344 36.953125 C 117.355469 36.953125 117.800781 38.34375 117.800781 39.902344 C 117.800781 41.464844 117.046875 45.234375 113.621094 45.234375 C 112.742188 45.25 111.871094 45.0625 111.074219 44.691406 C 111.335938 43.039062 111.613281 38.929688 112.042969 34.171875 L 110.625 34.171875 Z M 115.703125 38.007812 C 114.285156 38.007812 112.632812 40.726562 112.355469 44.03125 C 112.773438 44.183594 113.21875 44.261719 113.667969 44.253906 C 115.59375 44.253906 116.566406 42.09375 116.566406 39.835938 C 116.566406 38.65625 116.308594 38.007812 115.703125 38.007812 Z M 115.703125 38.007812 "/>
<path style=" stroke:none;fill-rule:nonzero;fill:rgb(100%,100%,100%);fill-opacity:1;" d="M 119.3125 42.734375 L 120.320312 42.734375 L 120.253906 43.953125 C 120.785156 44.160156 121.351562 44.265625 121.921875 44.261719 C 123.050781 44.261719 123.652344 43.613281 123.652344 42.855469 C 123.652344 41.25 119.546875 41.683594 119.546875 39.332031 C 119.546875 37.945312 120.488281 36.957031 122.472656 36.957031 C 123.289062 36.964844 124.097656 37.105469 124.871094 37.371094 L 124.714844 39.382812 L 123.710938 39.382812 L 123.773438 38.160156 C 123.339844 38.007812 122.878906 37.933594 122.421875 37.9375 C 121.105469 37.9375 120.722656 38.613281 120.722656 39.125 C 120.722656 39.835938 121.324219 40.097656 122.1875 40.421875 L 123.089844 40.761719 C 124.109375 41.148438 124.832031 41.550781 124.832031 42.691406 C 124.832031 44.359375 123.691406 45.242188 121.824219 45.242188 C 120.914062 45.25 120.015625 45.082031 119.167969 44.746094 Z M 119.3125 42.734375 "/>
<path style=" stroke:none;fill-rule:nonzero;fill:rgb(100%,100%,100%);fill-opacity:1;" d="M 131.691406 44.648438 C 130.953125 45.042969 130.125 45.246094 129.285156 45.234375 C 127.324219 45.234375 126.339844 44.230469 126.339844 41.652344 C 126.304688 40.421875 126.703125 39.21875 127.464844 38.253906 C 128.128906 37.402344 129.160156 36.917969 130.242188 36.957031 C 131.769531 36.957031 132.433594 37.855469 132.433594 38.757812 C 132.433594 40.660156 130.257812 41.679688 127.574219 41.988281 C 127.574219 43.609375 128.375 44.179688 129.601562 44.179688 C 130.398438 44.152344 131.171875 43.90625 131.839844 43.46875 Z M 130.027344 37.929688 C 128.558594 37.929688 127.742188 39.398438 127.574219 41.125 C 129.78125 40.847656 131.199219 40.222656 131.199219 38.839844 C 131.199219 38.40625 130.84375 37.929688 130.027344 37.929688 Z M 130.027344 37.929688 "/>
<path style=" stroke:none;fill-rule:nonzero;fill:rgb(100%,100%,100%);fill-opacity:1;" d="M 133.667969 37.109375 L 135.984375 37.109375 C 135.921875 37.789062 135.84375 38.996094 135.613281 40.554688 L 135.644531 40.585938 C 136.09375 38.40625 136.800781 36.957031 138.4375 36.957031 C 138.691406 36.953125 138.945312 36.976562 139.195312 37.035156 L 139.007812 38.160156 C 138.835938 38.125 138.660156 38.101562 138.484375 38.097656 C 136.925781 38.097656 135.921875 39.859375 135.351562 45.085938 L 134.175781 45.085938 C 134.5 42.675781 134.640625 40.238281 134.808594 38.097656 L 133.574219 38.097656 Z M 133.667969 37.109375 "/>
<path style=" stroke:none;fill-rule:nonzero;fill:rgb(100%,100%,100%);fill-opacity:1;" d="M 139.78125 37.109375 L 142.257812 37.109375 C 142.195312 38.316406 142.070312 40.136719 142.070312 41.1875 C 142.070312 43.613281 142.335938 44.183594 143.027344 44.183594 C 144.277344 44.183594 145.507812 42.15625 145.804688 38.082031 L 144.570312 38.082031 L 144.664062 37.109375 L 147.039062 37.109375 C 146.71875 41.574219 145.589844 45.226562 142.796875 45.226562 C 141.328125 45.226562 140.804688 44.128906 140.835938 41.179688 C 140.851562 40.316406 140.882812 39.324219 140.929688 38.074219 L 139.695312 38.074219 Z M 139.78125 37.109375 "/>
<path style=" stroke:none;fill-rule:nonzero;fill:rgb(100%,100%,100%);fill-opacity:1;" d="M 155.355469 44.105469 L 155.265625 45.082031 L 152.949219 45.082031 C 153.039062 43.738281 153.234375 42.40625 153.535156 41.09375 L 153.503906 41.066406 C 153.101562 42.53125 152.222656 45.234375 150.28125 45.234375 C 148.964844 45.234375 148.253906 44.046875 148.253906 42.34375 C 148.253906 40.261719 149.007812 38.714844 149.671875 38.0625 C 150.574219 37.160156 151.585938 36.964844 152.601562 36.964844 C 153.1875 36.957031 153.765625 37.085938 154.296875 37.335938 L 154.824219 37.335938 C 154.597656 38.433594 154.328125 41.890625 154.191406 44.117188 Z M 150.417969 44.09375 C 152.054688 44.09375 153.273438 40.523438 153.519531 38.128906 C 153.164062 37.988281 152.789062 37.921875 152.410156 37.929688 C 150.125 37.929688 149.480469 40.246094 149.480469 42.328125 C 149.492188 43.503906 149.816406 44.09375 150.417969 44.09375 Z M 150.417969 44.09375 "/>
<path style=" stroke:none;fill-rule:nonzero;fill:rgb(100%,100%,100%);fill-opacity:1;" d="M 157.886719 38.082031 L 156.605469 38.082031 L 156.683594 37.109375 L 157.984375 37.109375 L 158.171875 35.117188 L 159.34375 35.070312 L 159.15625 37.109375 L 161.425781 37.109375 L 161.347656 38.082031 L 159.0625 38.082031 L 158.628906 42.949219 C 158.550781 43.722656 158.8125 44.183594 159.445312 44.183594 C 160.027344 44.171875 160.597656 44.007812 161.097656 43.703125 L 161.003906 44.804688 C 160.449219 45.085938 159.839844 45.234375 159.214844 45.234375 C 157.964844 45.234375 157.300781 44.585938 157.457031 42.808594 Z M 157.886719 38.082031 "/>
<path style=" stroke:none;fill-rule:nonzero;fill:rgb(100%,100%,100%);fill-opacity:1;" d="M 165.746094 36.957031 C 167.980469 36.957031 168.722656 38.839844 168.722656 40.523438 C 168.722656 43.132812 167.425781 45.234375 165.03125 45.234375 C 162.796875 45.234375 162.054688 43.351562 162.054688 41.683594 C 162.054688 39.132812 163.351562 36.957031 165.746094 36.957031 Z M 165.128906 44.183594 C 166.253906 44.183594 167.488281 43.335938 167.488281 40.460938 C 167.488281 38.777344 166.6875 38.007812 165.652344 38.007812 C 164.527344 38.007812 163.289062 38.855469 163.289062 41.726562 C 163.289062 43.410156 164.09375 44.183594 165.128906 44.183594 Z M 165.128906 44.183594 "/>
<path style=" stroke:none;fill-rule:nonzero;fill:rgb(100%,100%,100%);fill-opacity:1;" d="M 169.957031 37.109375 L 172.273438 37.109375 C 172.210938 37.789062 172.132812 38.996094 171.902344 40.554688 L 171.933594 40.585938 C 172.382812 38.40625 173.089844 36.957031 174.726562 36.957031 C 174.980469 36.953125 175.234375 36.976562 175.484375 37.035156 L 175.296875 38.160156 C 175.125 38.125 174.949219 38.101562 174.773438 38.097656 C 173.214844 38.097656 172.210938 39.859375 171.640625 45.085938 L 170.464844 45.085938 C 170.789062 42.675781 170.929688 40.238281 171.097656 38.097656 L 169.863281 38.097656 Z M 169.957031 37.109375 "/>
<path style=" stroke:none;fill-rule:nonzero;fill:rgb(100%,100%,100%);fill-opacity:1;" d="M 175.375 48.042969 C 175.667969 48.132812 175.972656 48.175781 176.277344 48.167969 C 176.972656 48.167969 177.605469 47.875 178.375 46.269531 L 178.839844 45.296875 L 176.785156 38.082031 L 175.613281 38.082031 L 175.707031 37.109375 L 177.867188 37.109375 L 179.332031 42.902344 C 179.449219 43.265625 179.511719 43.648438 179.515625 44.03125 L 179.550781 44.03125 C 179.6875 43.578125 179.796875 43.179688 179.933594 42.792969 L 181.785156 38.082031 L 180.457031 38.082031 L 180.550781 37.109375 L 183.007812 37.109375 L 182.914062 38.082031 L 181.601562 41.3125 C 178.992188 47.78125 178.347656 49.140625 176.230469 49.140625 C 175.914062 49.136719 175.597656 49.097656 175.289062 49.019531 Z M 175.375 48.042969 "/>
<path style=" stroke:none;fill-rule:nonzero;fill:rgb(100%,100%,100%);fill-opacity:1;" d="M 66.636719 25.308594 C 61.917969 25.308594 58.5625 21.476562 58.5625 16.820312 C 58.5625 12.164062 61.851562 8.398438 66.566406 8.398438 C 71.28125 8.398438 74.644531 12.230469 74.644531 16.886719 C 74.644531 21.546875 71.355469 25.308594 66.636719 25.308594 M 66.636719 5.613281 C 59.964844 5.613281 55.246094 10.734375 55.246094 16.886719 C 55.246094 23.035156 59.902344 28.09375 66.574219 28.09375 C 73.246094 28.09375 77.960938 22.972656 77.960938 16.820312 C 77.960938 10.671875 73.304688 5.613281 66.632812 5.613281 "/>
<path style=" stroke:none;fill-rule:nonzero;fill:rgb(100%,100%,100%);fill-opacity:1;" d="M 95.882812 5.851562 L 79.78125 5.851562 L 79.78125 27.855469 L 96.039062 27.855469 L 96.039062 24.996094 L 82.957031 24.996094 L 82.957031 18.191406 L 94.53125 18.191406 L 94.53125 15.328125 L 82.957031 15.328125 L 82.957031 8.710938 L 95.882812 8.710938 Z M 95.882812 5.851562 "/>
<path style=" stroke:none;fill-rule:nonzero;fill:rgb(100%,100%,100%);fill-opacity:1;" d="M 114.585938 22.292969 C 112.558594 24.195312 110.785156 25.308594 107.878906 25.308594 C 103.355469 25.308594 99.996094 21.507812 99.996094 16.820312 C 99.996094 12.132812 103.355469 8.398438 107.878906 8.398438 C 110.582031 8.398438 112.527344 9.507812 114.414062 11.273438 L 116.5 8.933594 C 114.292969 6.855469 111.910156 5.472656 107.90625 5.472656 C 101.410156 5.472656 96.746094 10.597656 96.746094 16.886719 C 96.746094 23.234375 101.445312 28.234375 107.8125 28.234375 C 111.816406 28.234375 114.34375 26.679688 116.640625 24.351562 Z M 114.585938 22.292969 "/>
<path style=" stroke:none;fill-rule:nonzero;fill:rgb(100%,100%,100%);fill-opacity:1;" d="M 125.65625 24.949219 L 120.90625 24.949219 L 120.90625 8.757812 L 125.65625 8.757812 C 130.714844 8.757812 134.019531 12.195312 134.019531 16.886719 C 134.019531 21.582031 130.726562 24.949219 125.65625 24.949219 M 125.65625 5.851562 L 117.730469 5.851562 L 117.730469 27.855469 L 125.648438 27.855469 C 132.570312 27.855469 137.335938 23.046875 137.335938 16.820312 C 137.335938 10.597656 132.5625 5.851562 125.648438 5.851562 "/>
<path style=" stroke:none;fill-rule:nonzero;fill:rgb(100%,100%,100%);fill-opacity:1;" d="M 166.46875 22.539062 L 156.792969 22.539062 L 154.277344 28.03125 L 150.601562 28.03125 L 161.785156 3.996094 L 172.570312 28.03125 L 168.839844 28.03125 Z M 165.078125 19.332031 L 161.726562 11.640625 L 158.210938 19.332031 Z M 165.078125 19.332031 "/>
<path style=" stroke:none;fill-rule:nonzero;fill:rgb(100%,100%,100%);fill-opacity:1;" d="M 179.703125 5.417969 L 179.703125 28.03125 L 176.296875 28.03125 L 176.296875 5.417969 Z M 179.703125 5.417969 "/>
<path style=" stroke:none;fill-rule:nonzero;fill:rgb(100%,100%,100%);fill-opacity:1;" d="M 141.3125 26.214844 C 141.316406 25.394531 141.8125 24.65625 142.574219 24.34375 C 143.332031 24.035156 144.207031 24.210938 144.78125 24.796875 C 145.445312 25.449219 145.582031 26.464844 145.117188 27.269531 C 144.652344 28.074219 143.703125 28.464844 142.808594 28.214844 C 141.914062 27.96875 141.296875 27.144531 141.3125 26.214844 Z M 141.3125 26.214844 "/>
<path style="fill-rule:nonzero;fill:rgb(49.803922%,1.960784%,2.352941%);fill-opacity:1;stroke-width:2;stroke-linecap:butt;stroke-linejoin:miter;stroke:rgb(7.45098%,34.117647%,50.588235%);stroke-opacity:1;stroke-miterlimit:10;" d="M 230.349006 115.989117 C 230.349006 179.149108 179.142998 230.352887 115.989499 230.352887 C 52.836 230.352887 1.629991 179.149108 1.629991 115.989117 C 1.629991 52.829125 52.836 1.625346 115.989499 1.625346 C 179.142998 1.625346 230.349006 52.829125 230.349006 115.989117 Z M 230.349006 115.989117 " transform="matrix(0.22527,0,0,0.225432,0,0.0320324)"/>
<path style=" stroke:none;fill-rule:nonzero;fill:rgb(100%,100%,100%);fill-opacity:1;" d="M 24.222656 14.457031 C 24.253906 14.570312 24.308594 14.625 24.363281 14.625 C 24.421875 14.625 24.421875 14.597656 24.449219 14.570312 C 24.449219 14.65625 24.480469 14.742188 24.480469 14.796875 C 24.535156 15.308594 24.59375 15.535156 24.878906 15.847656 C 25.328125 16.300781 25.644531 16.503906 26.074219 16.503906 C 26.5 16.503906 26.78125 16.332031 27.238281 15.875 C 27.519531 15.589844 27.578125 15.335938 27.636719 14.824219 C 27.636719 14.765625 27.664062 14.679688 27.664062 14.597656 C 27.691406 14.625 27.722656 14.65625 27.75 14.65625 C 27.777344 14.65625 27.863281 14.597656 27.894531 14.484375 C 27.933594 14.261719 27.988281 14.042969 28.0625 13.832031 C 28.175781 13.460938 28.089844 13.347656 28.035156 13.316406 C 28.011719 13.296875 27.980469 13.285156 27.949219 13.289062 C 27.875 13.292969 27.804688 13.324219 27.75 13.375 C 27.777344 13.03125 27.777344 12.632812 27.777344 12.238281 C 27.777344 11.042969 26.386719 10.839844 26.074219 10.839844 C 25.757812 10.839844 24.363281 11.011719 24.363281 12.238281 C 24.363281 12.664062 24.363281 13.03125 24.394531 13.375 C 24.339844 13.324219 24.269531 13.292969 24.195312 13.289062 C 24.164062 13.285156 24.132812 13.296875 24.109375 13.316406 C 24.050781 13.375 23.96875 13.460938 24.082031 13.832031 C 24.195312 14.199219 24.195312 14.285156 24.222656 14.457031 Z M 29.882812 50.59375 C 29.5625 50.386719 29.269531 50.148438 29 49.882812 C 28.777344 49.65625 28.972656 49.226562 28.886719 48.773438 C 28.800781 48.316406 28.800781 48.144531 29.144531 46.667969 C 29.464844 45.382812 29.636719 44.066406 29.65625 42.738281 C 29.65625 41.488281 29.253906 40.949219 29.230469 40.4375 C 29.203125 39.925781 29.253906 39.355469 29.230469 38.558594 C 29.195312 37.863281 29.242188 37.164062 29.371094 36.480469 C 29.511719 35.542969 29.683594 34.261719 29.796875 32.582031 C 29.910156 30.902344 29.855469 29.738281 29.65625 28.851562 C 29.453125 27.96875 29.171875 27.402344 29.429688 26.464844 C 29.6875 25.523438 29.402344 24.8125 29.371094 24.046875 C 29.34375 23.277344 29.402344 23.335938 29.742188 22.851562 C 30.082031 22.367188 30.539062 20.0625 30.824219 19.179688 C 31.109375 18.296875 31.164062 18.277344 31.164062 18.277344 C 33.269531 18.054688 33.980469 17.539062 34.40625 17.253906 C 34.832031 16.964844 34.773438 17.027344 35.542969 16.914062 C 36.3125 16.796875 37.050781 16.628906 38.414062 15.886719 C 39.464844 15.269531 40.484375 14.589844 41.457031 13.859375 L 41.683594 13.859375 C 42.359375 13.859375 42.964844 13.746094 43.246094 13.460938 C 43.53125 13.175781 43.730469 13.117188 43.871094 13.117188 L 44.496094 13.117188 C 44.8125 13.117188 45.039062 12.945312 44.921875 12.691406 C 44.839844 12.519531 44.128906 12.488281 43.757812 12.488281 L 43.535156 12.488281 C 43.535156 12.488281 43.847656 12.265625 44.246094 11.921875 C 44.644531 11.578125 44.757812 11.722656 45.324219 11.410156 C 45.890625 11.097656 45.753906 10.839844 45.753906 10.839844 C 45.042969 11.070312 44.320312 11.25 43.589844 11.378906 C 42.765625 11.523438 42.308594 12.007812 41.085938 12.488281 C 39.863281 12.972656 38.609375 13.085938 36.566406 13.6875 C 35.332031 14.046875 34.164062 14.59375 33.097656 15.308594 C 32.722656 15.253906 32.347656 15.226562 31.96875 15.222656 C 29.75 15.222656 28.925781 16.359375 28.671875 16.246094 C 28.472656 16.359375 27.996094 15.992188 27.675781 15.734375 C 27.609375 15.84375 27.535156 15.949219 27.453125 16.046875 C 26.9375 16.558594 26.566406 16.757812 26.085938 16.757812 C 25.605469 16.757812 25.203125 16.535156 24.691406 16.019531 C 24.609375 15.921875 24.53125 15.816406 24.464844 15.707031 C 24.117188 15.96875 23.785156 16.253906 23.472656 16.558594 C 23.214844 16.332031 22.417969 15.164062 20.171875 15.164062 C 19.796875 15.167969 19.417969 15.199219 19.046875 15.25 C 17.976562 14.53125 16.808594 13.976562 15.578125 13.601562 C 13.476562 13.03125 12.253906 12.945312 11.027344 12.441406 C 9.804688 11.933594 9.351562 11.472656 8.550781 11.3125 C 7.820312 11.171875 7.097656 10.984375 6.390625 10.746094 C 6.390625 10.746094 6.25 10.96875 6.816406 11.3125 C 7.382812 11.65625 7.472656 11.484375 7.867188 11.855469 C 8.265625 12.222656 8.582031 12.421875 8.582031 12.421875 L 8.355469 12.421875 C 7.984375 12.421875 7.273438 12.449219 7.1875 12.621094 C 7.074219 12.878906 7.304688 13.046875 7.617188 13.046875 L 8.242188 13.046875 C 8.382812 13.046875 8.554688 13.046875 8.867188 13.390625 C 9.152344 13.660156 9.757812 13.773438 10.433594 13.773438 L 10.65625 13.773438 C 11.632812 14.511719 12.648438 15.195312 13.703125 15.820312 C 15.039062 16.5625 15.808594 16.761719 16.546875 16.875 C 17.285156 16.988281 17.257812 16.929688 17.671875 17.214844 C 18.085938 17.503906 18.796875 18.011719 20.882812 18.269531 C 20.882812 18.269531 20.96875 18.269531 21.226562 19.171875 C 21.484375 20.074219 21.9375 22.355469 22.277344 22.839844 C 22.621094 23.324219 22.679688 23.292969 22.648438 24.035156 C 22.621094 24.78125 22.308594 25.515625 22.59375 26.453125 C 22.875 27.394531 22.5625 27.964844 22.367188 28.84375 C 22.171875 29.726562 22.109375 30.894531 22.226562 32.574219 C 22.289062 33.878906 22.421875 35.179688 22.621094 36.472656 C 22.75 37.15625 22.796875 37.851562 22.761719 38.550781 C 22.738281 39.34375 22.761719 39.914062 22.738281 40.425781 C 22.710938 40.9375 22.3125 41.449219 22.3125 42.730469 C 22.304688 44.054688 22.464844 45.375 22.792969 46.65625 C 23.136719 48.167969 23.105469 48.308594 23.019531 48.792969 C 22.929688 49.277344 23.132812 49.695312 22.90625 49.902344 C 22.636719 50.167969 22.339844 50.40625 22.023438 50.613281 C 21.570312 50.898438 21.3125 51.011719 21.367188 51.183594 C 21.425781 51.355469 21.820312 51.523438 22.308594 51.667969 C 22.453125 51.714844 22.605469 51.734375 22.757812 51.722656 C 23.070312 51.730469 23.375 51.652344 23.640625 51.5 C 23.875 51.339844 24.15625 51.257812 24.4375 51.273438 C 24.808594 51.273438 24.921875 51.15625 24.921875 50.902344 C 24.921875 50.648438 24.75 50.390625 24.578125 50.105469 C 24.421875 49.902344 24.378906 49.636719 24.464844 49.394531 C 24.550781 49.136719 24.523438 49.082031 24.492188 48.71875 C 24.464844 48.355469 24.523438 46.753906 24.523438 46.011719 C 24.523438 45.273438 24.808594 44.734375 24.972656 44.078125 C 25.125 43.394531 25.164062 42.695312 25.089844 42 C 25.039062 41.574219 25.046875 41.144531 25.117188 40.71875 C 25.199219 40.09375 25.371094 39.210938 25.542969 38.1875 C 25.710938 37.296875 25.796875 36.390625 25.796875 35.484375 C 25.796875 34.429688 25.914062 33.179688 26.023438 33.179688 C 26.132812 33.179688 26.222656 34.429688 26.222656 35.484375 C 26.199219 36.390625 26.273438 37.296875 26.445312 38.1875 C 26.617188 39.210938 26.789062 40.09375 26.875 40.71875 C 26.960938 41.347656 26.988281 41.375 26.902344 42 C 26.816406 42.691406 26.847656 43.394531 26.988281 44.078125 C 27.160156 44.734375 27.414062 45.273438 27.414062 46.011719 C 27.414062 46.753906 27.441406 48.347656 27.414062 48.71875 C 27.386719 49.089844 27.355469 49.144531 27.441406 49.394531 C 27.535156 49.640625 27.480469 49.914062 27.300781 50.105469 C 27.128906 50.390625 26.929688 50.617188 26.960938 50.902344 C 26.988281 51.1875 27.101562 51.273438 27.441406 51.273438 C 27.726562 51.257812 28.003906 51.339844 28.238281 51.5 C 28.511719 51.644531 28.8125 51.71875 29.121094 51.722656 C 29.273438 51.71875 29.421875 51.699219 29.570312 51.667969 C 30.054688 51.523438 30.453125 51.382812 30.507812 51.183594 C 30.566406 50.984375 30.367188 50.90625 29.882812 50.59375 Z M 16.460938 19.605469 C 17.199219 19.433594 17.136719 19.40625 17.65625 19.550781 C 18.414062 19.765625 19.214844 19.785156 19.984375 19.605469 C 20.4375 19.519531 20.726562 19.378906 21.039062 19.550781 L 20.953125 19.207031 C 20.839844 18.78125 20.753906 18.582031 20.730469 18.46875 C 18.738281 18.214844 18 17.726562 17.574219 17.414062 L 17.515625 17.386719 C 17.292969 17.253906 17.039062 17.175781 16.777344 17.160156 C 16.691406 17.160156 16.605469 17.132812 16.464844 17.132812 C 16.15625 17.101562 15.855469 17.035156 15.5625 16.933594 C 15.222656 16.933594 14.824219 16.933594 14.4375 16.960938 C 12.304688 17.105469 11.113281 17.445312 9.773438 17.386719 C 8.4375 17.328125 7.871094 17.078125 7.046875 17.191406 C 6.3125 17.316406 5.570312 17.390625 4.828125 17.414062 C 4.828125 17.414062 4.769531 17.671875 5.394531 17.785156 C 6.019531 17.898438 6.070312 17.726562 6.589844 17.898438 C 7.113281 18.070312 7.441406 18.183594 7.441406 18.183594 C 7.441406 18.183594 6.21875 18.582031 6.191406 18.859375 C 6.164062 19.136719 6.445312 19.199219 6.734375 19.113281 C 7.019531 19.027344 7.183594 18.945312 7.332031 18.890625 C 7.476562 18.832031 7.644531 18.804688 8.039062 18.976562 C 8.4375 19.144531 9.121094 19.035156 9.859375 18.71875 C 11.027344 19.074219 12.214844 19.359375 13.414062 19.574219 C 14.9375 19.863281 15.691406 19.777344 16.460938 19.605469 Z M 47.257812 17.578125 C 46.511719 17.558594 45.769531 17.480469 45.039062 17.351562 C 44.214844 17.210938 43.644531 17.492188 42.308594 17.523438 C 40.972656 17.550781 39.777344 17.210938 37.644531 17.074219 C 37.246094 17.042969 36.875 17.042969 36.507812 17.042969 C 36.210938 17.121094 35.910156 17.179688 35.605469 17.214844 C 35.503906 17.234375 35.398438 17.246094 35.292969 17.242188 C 35.035156 17.238281 34.78125 17.332031 34.582031 17.5 L 34.527344 17.527344 C 34.078125 17.8125 33.332031 18.324219 31.375 18.550781 C 31.34375 18.664062 31.257812 18.863281 31.148438 19.289062 C 31.113281 19.402344 31.082031 19.515625 31.0625 19.632812 C 31.375 19.460938 31.628906 19.605469 32.113281 19.691406 C 32.882812 19.867188 33.6875 19.847656 34.445312 19.632812 C 34.957031 19.519531 34.871094 19.546875 35.640625 19.71875 C 36.40625 19.890625 37.175781 19.972656 38.683594 19.746094 C 39.882812 19.535156 41.066406 19.261719 42.234375 18.921875 C 42.949219 19.203125 43.65625 19.371094 44.054688 19.179688 C 44.453125 18.984375 44.625 19.035156 44.769531 19.09375 C 44.910156 19.148438 45.082031 19.203125 45.363281 19.316406 C 45.648438 19.429688 45.933594 19.34375 45.90625 19.09375 C 45.878906 18.839844 44.652344 18.414062 44.652344 18.414062 C 44.652344 18.414062 45.023438 18.300781 45.507812 18.132812 C 45.992188 17.964844 46.046875 18.132812 46.699219 18.015625 C 47.3125 17.851562 47.257812 17.585938 47.257812 17.585938 Z M 21.863281 32.582031 C 21.777344 31.503906 21.796875 30.421875 21.921875 29.347656 C 21.804688 29.574219 21.695312 29.796875 21.492188 30.171875 C 20.78125 31.359375 20.21875 32.632812 19.816406 33.957031 C 19.367188 35.523438 19.140625 36.0625 18.621094 36.972656 C 18.105469 37.882812 18.109375 37.875 17.542969 38.453125 C 16.972656 39.03125 15.976562 40.53125 15.4375 42.636719 C 14.898438 44.742188 14.839844 44.929688 14.582031 45.351562 C 14.328125 45.773438 14.242188 45.980469 13.929688 46.066406 C 13.53125 46.15625 13.117188 46.195312 12.707031 46.179688 C 12.140625 46.152344 11.96875 46.152344 11.65625 46.035156 C 11.34375 45.921875 11.171875 45.867188 11.085938 45.980469 C 11.027344 46.089844 11.015625 46.21875 11.050781 46.335938 C 11.089844 46.453125 11.175781 46.550781 11.285156 46.605469 C 11.597656 46.75 11.570312 46.71875 11.683594 46.917969 C 11.859375 47.1875 12.105469 47.402344 12.394531 47.542969 C 12.640625 47.710938 12.921875 47.808594 13.21875 47.832031 C 13.476562 47.859375 13.445312 47.859375 13.589844 48.058594 C 13.707031 48.328125 13.90625 48.558594 14.15625 48.710938 C 14.527344 48.96875 14.753906 48.996094 14.953125 48.824219 C 15.152344 48.652344 15.296875 48.375 15.296875 47.859375 C 15.296875 47.339844 15.324219 47.117188 15.492188 46.859375 C 15.664062 46.605469 16.0625 45.734375 16.433594 44.925781 C 16.804688 44.121094 17.03125 43.644531 17.65625 42.964844 C 18.277344 42.28125 18.851562 41.910156 19.246094 40.914062 C 19.644531 39.917969 19.617188 39.71875 19.957031 39.320312 C 20.183594 39.066406 20.367188 38.78125 20.5 38.46875 C 20.640625 38.183594 20.753906 38.097656 21.210938 37.585938 C 21.523438 37.242188 21.921875 36.757812 22.261719 36.304688 C 22.054688 35.074219 21.921875 33.828125 21.863281 32.582031 Z M 40.234375 46.15625 C 39.921875 46.269531 39.75 46.269531 39.179688 46.269531 C 38.769531 46.292969 38.355469 46.246094 37.957031 46.125 C 37.644531 46.039062 37.558594 45.84375 37.304688 45.414062 C 37.050781 44.988281 36.992188 44.820312 36.449219 42.683594 C 35.910156 40.550781 34.945312 39.039062 34.375 38.472656 C 33.808594 37.90625 33.804688 37.902344 33.292969 36.992188 C 32.785156 36.082031 32.554688 35.542969 32.101562 33.949219 C 31.710938 32.613281 31.15625 31.332031 30.453125 30.132812 C 30.25 29.792969 30.140625 29.535156 30.023438 29.308594 C 30.136719 30.386719 30.148438 31.472656 30.054688 32.554688 C 29.96875 33.863281 29.855469 35.085938 29.65625 36.335938 C 29.996094 36.824219 30.394531 37.304688 30.679688 37.648438 C 31.128906 38.160156 31.246094 38.246094 31.390625 38.527344 C 31.519531 38.839844 31.703125 39.128906 31.929688 39.382812 C 32.269531 39.78125 32.269531 39.980469 32.640625 41.003906 C 33.011719 42.027344 33.609375 42.398438 34.203125 43.054688 C 34.714844 43.632812 35.117188 44.296875 35.398438 45.015625 C 35.769531 45.84375 36.167969 46.722656 36.335938 46.980469 C 36.503906 47.238281 36.507812 47.464844 36.535156 47.976562 C 36.523438 48.332031 36.644531 48.675781 36.875 48.945312 C 37.078125 49.117188 37.304688 49.085938 37.675781 48.828125 C 37.917969 48.679688 38.113281 48.460938 38.242188 48.203125 C 38.355469 48.003906 38.328125 48.003906 38.609375 47.980469 C 38.90625 47.957031 39.1875 47.859375 39.4375 47.695312 C 39.71875 47.546875 39.964844 47.332031 40.148438 47.070312 C 40.261719 46.867188 40.234375 46.898438 40.546875 46.753906 C 40.660156 46.703125 40.742188 46.601562 40.78125 46.484375 C 40.820312 46.367188 40.804688 46.238281 40.746094 46.128906 C 40.714844 46.011719 40.546875 46.070312 40.234375 46.15625 Z M 40.234375 46.15625 "/>
<path style=" stroke:none;fill-rule:nonzero;fill:rgb(67.45098%,58.823529%,49.803922%);fill-opacity:1;" d="M 37.417969 49 C 37.191406 49.085938 37.046875 49.085938 36.90625 48.945312 C 36.707031 48.773438 36.5625 48.492188 36.5625 47.976562 C 36.5625 47.460938 36.535156 47.238281 36.367188 46.980469 C 36.195312 46.722656 35.824219 45.84375 35.429688 45.015625 C 35.144531 44.296875 34.742188 43.632812 34.230469 43.054688 C 33.636719 42.378906 33.039062 42 32.667969 41.003906 C 32.300781 40.007812 32.300781 39.808594 31.960938 39.382812 C 31.734375 39.128906 31.550781 38.839844 31.417969 38.527344 C 31.277344 38.246094 31.160156 38.160156 30.707031 37.648438 C 30.339844 37.230469 30 36.792969 29.683594 36.335938 C 29.882812 35.113281 29.996094 33.859375 30.082031 32.554688 C 30.160156 31.53125 30.152344 30.5 30.054688 29.480469 C 30.023438 29.480469 30.023438 29.507812 29.996094 29.507812 L 29.773438 29.507812 C 29.855469 30.523438 29.863281 31.539062 29.796875 32.554688 C 29.6875 34.230469 29.515625 35.511719 29.371094 36.453125 C 29.230469 37.394531 29.175781 37.734375 29.230469 38.527344 C 29.289062 39.324219 29.230469 39.894531 29.230469 40.40625 C 29.230469 40.917969 29.628906 41.433594 29.65625 42.714844 C 29.636719 44.035156 29.464844 45.355469 29.144531 46.636719 C 28.804688 48.144531 28.832031 48.289062 28.886719 48.746094 C 28.945312 49.199219 28.777344 49.648438 29.003906 49.855469 C 29.265625 50.128906 29.558594 50.367188 29.882812 50.566406 C 30.335938 50.851562 30.597656 50.964844 30.511719 51.136719 C 30.425781 51.304688 30.058594 51.476562 29.570312 51.617188 C 29.425781 51.664062 29.273438 51.683594 29.121094 51.675781 C 28.8125 51.683594 28.507812 51.605469 28.238281 51.449219 C 28.007812 51.292969 27.726562 51.210938 27.445312 51.226562 C 27.074219 51.226562 26.960938 51.109375 26.960938 50.855469 C 26.960938 50.601562 27.132812 50.339844 27.300781 50.058594 C 27.46875 49.773438 27.527344 49.605469 27.445312 49.347656 C 27.363281 49.089844 27.386719 49.035156 27.414062 48.671875 C 27.445312 48.308594 27.414062 46.707031 27.414062 45.964844 C 27.414062 45.222656 27.160156 44.6875 26.988281 44.03125 C 26.832031 43.347656 26.804688 42.644531 26.902344 41.953125 C 26.988281 41.296875 26.929688 41.296875 26.875 40.671875 C 26.816406 40.046875 26.621094 39.164062 26.449219 38.140625 C 26.273438 37.25 26.199219 36.339844 26.222656 35.433594 C 26.25 34.382812 26.167969 33.128906 26.023438 33.128906 C 25.878906 33.128906 25.769531 34.382812 25.796875 35.433594 C 25.792969 36.34375 25.703125 37.25 25.523438 38.140625 C 25.355469 39.164062 25.15625 40.046875 25.097656 40.671875 C 25.003906 41.09375 24.996094 41.527344 25.070312 41.953125 C 25.144531 42.648438 25.105469 43.347656 24.957031 44.03125 C 24.785156 44.6875 24.53125 45.222656 24.503906 45.964844 C 24.480469 46.707031 24.449219 48.300781 24.476562 48.671875 C 24.507812 49.042969 24.535156 49.097656 24.449219 49.347656 C 24.359375 49.589844 24.40625 49.855469 24.5625 50.058594 C 24.730469 50.339844 24.902344 50.570312 24.902344 50.855469 C 24.902344 51.140625 24.761719 51.226562 24.421875 51.226562 C 24.136719 51.210938 23.859375 51.289062 23.625 51.449219 C 23.351562 51.589844 23.050781 51.667969 22.742188 51.675781 C 22.589844 51.671875 22.441406 51.652344 22.292969 51.617188 C 21.808594 51.476562 21.410156 51.304688 21.351562 51.136719 C 21.292969 50.964844 21.523438 50.851562 22.007812 50.566406 C 22.324219 50.359375 22.621094 50.121094 22.890625 49.855469 C 23.113281 49.652344 22.917969 49.199219 23.003906 48.746094 C 23.085938 48.289062 23.085938 48.117188 22.777344 46.609375 C 22.464844 45.101562 22.265625 43.964844 22.296875 42.683594 C 22.324219 41.402344 22.71875 40.890625 22.71875 40.378906 C 22.71875 39.867188 22.71875 39.296875 22.75 38.5 C 22.78125 37.804688 22.734375 37.109375 22.609375 36.421875 C 22.410156 35.132812 22.277344 33.832031 22.210938 32.527344 C 22.144531 31.53125 22.15625 30.53125 22.238281 29.535156 L 21.953125 29.535156 C 21.855469 30.539062 21.847656 31.546875 21.925781 32.554688 C 21.980469 33.863281 22.125 35.085938 22.296875 36.335938 C 21.976562 36.792969 21.625 37.21875 21.242188 37.617188 C 20.792969 38.128906 20.671875 38.214844 20.53125 38.5 C 20.386719 38.804688 20.207031 39.09375 19.992188 39.355469 C 19.648438 39.753906 19.648438 39.953125 19.28125 40.949219 C 18.910156 41.945312 18.3125 42.3125 17.6875 42.996094 C 17.179688 43.582031 16.765625 44.246094 16.464844 44.960938 C 16.070312 45.785156 15.695312 46.667969 15.527344 46.894531 C 15.359375 47.121094 15.355469 47.378906 15.328125 47.890625 C 15.339844 48.246094 15.21875 48.589844 14.988281 48.859375 C 14.816406 49.03125 14.617188 49 14.3125 48.800781 C 14.253906 48.859375 14.226562 48.914062 14.167969 48.972656 C 21.554688 52.882812 30.375 52.957031 37.824219 49.171875 C 37.738281 49.109375 37.640625 49.058594 37.539062 49.03125 C 37.445312 49.058594 37.445312 49.03125 37.417969 49 Z M 37.417969 49 "/>
<path style=" stroke:none;fill-rule:nonzero;fill:rgb(7.45098%,34.117647%,50.588235%);fill-opacity:1;" d="M 11.625 46.070312 C 11.9375 46.183594 12.109375 46.183594 12.679688 46.210938 C 13.089844 46.226562 13.5 46.191406 13.902344 46.097656 C 14.214844 46.039062 14.300781 45.8125 14.558594 45.386719 C 14.8125 44.960938 14.867188 44.789062 15.410156 42.65625 C 15.949219 40.519531 16.945312 39.046875 17.511719 38.472656 C 18.082031 37.898438 18.082031 37.902344 18.59375 36.992188 C 19.105469 36.082031 19.332031 35.542969 19.789062 33.976562 C 20.191406 32.648438 20.757812 31.378906 21.46875 30.191406 C 21.632812 29.929688 21.777344 29.652344 21.894531 29.367188 L 21.894531 29.394531 C 21.925781 29.367188 21.925781 29.367188 21.953125 29.367188 L 22.179688 29.367188 C 22.207031 29.195312 22.238281 29.023438 22.261719 28.882812 C 22.464844 28 22.773438 27.429688 22.488281 26.492188 C 22.203125 25.554688 22.519531 24.84375 22.546875 24.074219 C 22.570312 23.304688 22.519531 23.363281 22.175781 22.878906 C 21.863281 22.453125 21.5 20.625 21.238281 19.578125 L 20.953125 19.578125 L 20.953125 19.605469 C 20.640625 19.433594 20.382812 19.578125 19.902344 19.664062 C 19.132812 19.84375 18.332031 19.824219 17.570312 19.605469 C 17.058594 19.492188 17.144531 19.519531 16.375 19.664062 C 15.605469 19.804688 14.839844 19.917969 13.332031 19.691406 C 12.132812 19.476562 10.945312 19.191406 9.777344 18.835938 C 9.039062 19.121094 8.359375 19.289062 7.957031 19.09375 C 7.558594 18.902344 7.390625 18.953125 7.25 19.007812 C 7.105469 19.066406 6.9375 19.121094 6.648438 19.234375 C 6.363281 19.347656 6.082031 19.261719 6.113281 18.976562 C 6.140625 18.691406 7.363281 18.300781 7.363281 18.300781 C 7.363281 18.300781 6.992188 18.1875 6.507812 18.015625 C 6.023438 17.84375 5.96875 18.015625 5.3125 17.902344 C 4.746094 17.820312 4.71875 17.589844 4.71875 17.535156 L 1.871094 17.535156 C 0.851562 20.34375 0.332031 23.308594 0.335938 26.296875 C 0.335938 35.882812 5.648438 44.683594 14.128906 49.140625 L 14.128906 48.945312 C 14.128906 48.914062 14.128906 48.914062 14.15625 48.914062 C 14.1875 48.914062 14.128906 48.914062 14.128906 48.886719 C 13.875 48.734375 13.679688 48.503906 13.5625 48.230469 C 13.445312 48.007812 13.476562 48.007812 13.191406 48.007812 C 12.898438 47.984375 12.613281 47.886719 12.367188 47.722656 C 12.082031 47.574219 11.839844 47.359375 11.65625 47.09375 C 11.542969 46.898438 11.570312 46.925781 11.257812 46.785156 C 11.144531 46.730469 11.058594 46.632812 11.023438 46.515625 C 10.984375 46.394531 10.996094 46.265625 11.058594 46.15625 C 11.144531 45.898438 11.332031 45.957031 11.625 46.070312 Z M 11.625 46.070312 "/>
<path style=" stroke:none;fill-rule:nonzero;fill:rgb(7.45098%,34.117647%,50.588235%);fill-opacity:1;" d="M 46.714844 10.558594 C 46.429688 10.726562 46.128906 10.871094 45.816406 10.984375 C 45.84375 11.070312 45.816406 11.242188 45.386719 11.496094 C 44.820312 11.839844 44.734375 11.667969 44.308594 12.007812 C 43.882812 12.351562 43.597656 12.578125 43.597656 12.578125 L 43.820312 12.578125 C 44.191406 12.578125 44.902344 12.605469 44.988281 12.777344 C 45.101562 13.03125 44.875 13.203125 44.5625 13.203125 L 43.929688 13.203125 C 43.789062 13.203125 43.617188 13.203125 43.304688 13.542969 C 43.019531 13.832031 42.421875 13.945312 41.738281 13.945312 L 41.515625 13.945312 C 40.539062 14.675781 39.523438 15.351562 38.472656 15.972656 C 37.136719 16.714844 36.367188 16.875 35.597656 16.996094 C 34.832031 17.121094 34.890625 17.054688 34.460938 17.339844 C 34.035156 17.621094 33.335938 18.136719 31.21875 18.363281 C 31.21875 18.363281 31.136719 18.363281 30.878906 19.265625 C 30.625 20.167969 30.167969 22.453125 29.796875 22.9375 C 29.429688 23.421875 29.402344 23.363281 29.429688 24.128906 C 29.457031 24.898438 29.742188 25.609375 29.484375 26.550781 C 29.230469 27.488281 29.515625 28.058594 29.710938 28.9375 C 29.765625 29.183594 29.804688 29.429688 29.824219 29.679688 L 30.109375 29.679688 C 30.109375 29.59375 30.082031 29.535156 30.082031 29.453125 C 30.207031 29.738281 30.347656 30.011719 30.507812 30.277344 C 31.203125 31.480469 31.753906 32.753906 32.15625 34.082031 C 32.582031 35.644531 32.832031 36.214844 33.351562 37.125 C 33.871094 38.039062 33.835938 38.027344 34.433594 38.605469 C 35.03125 39.183594 35.996094 40.683594 36.507812 42.816406 C 37.019531 44.953125 37.078125 45.121094 37.359375 45.550781 C 37.644531 45.976562 37.699219 46.203125 38.015625 46.257812 C 38.761719 46.441406 39.539062 46.449219 40.289062 46.289062 C 40.601562 46.175781 40.773438 46.117188 40.855469 46.230469 C 40.96875 46.460938 40.882812 46.734375 40.660156 46.855469 C 40.347656 47 40.375 46.972656 40.261719 47.167969 C 40.085938 47.441406 39.839844 47.65625 39.550781 47.796875 C 39.304688 47.964844 39.019531 48.0625 38.726562 48.082031 C 38.46875 48.109375 38.5 48.109375 38.355469 48.304688 C 38.226562 48.5625 38.03125 48.78125 37.785156 48.933594 L 37.816406 48.960938 C 46.421875 44.585938 51.851562 35.753906 51.882812 26.09375 C 51.851562 20.5 50.042969 15.058594 46.714844 10.558594 Z M 46.6875 18.011719 C 46.035156 18.128906 46.011719 17.957031 45.492188 18.128906 L 44.640625 18.410156 C 44.640625 18.410156 45.863281 18.808594 45.890625 19.085938 C 45.921875 19.363281 45.636719 19.429688 45.351562 19.3125 C 45.066406 19.199219 44.902344 19.140625 44.753906 19.085938 C 44.609375 19.035156 44.441406 18.972656 44.042969 19.171875 C 43.644531 19.375 42.964844 19.199219 42.222656 18.917969 C 41.054688 19.253906 39.867188 19.53125 38.667969 19.742188 C 37.664062 19.929688 36.628906 19.917969 35.625 19.714844 C 34.886719 19.542969 34.949219 19.515625 34.433594 19.628906 C 33.671875 19.84375 32.871094 19.863281 32.101562 19.683594 C 31.648438 19.597656 31.363281 19.460938 31.050781 19.628906 L 31.132812 19.285156 C 31.246094 18.859375 31.332031 18.660156 31.359375 18.546875 C 33.347656 18.320312 34.085938 17.835938 34.511719 17.523438 L 34.570312 17.492188 C 34.773438 17.335938 35.023438 17.246094 35.28125 17.238281 C 35.363281 17.238281 35.449219 17.210938 35.59375 17.210938 C 35.898438 17.175781 36.199219 17.117188 36.492188 17.039062 C 36.863281 17.039062 37.234375 17.039062 37.632812 17.066406 C 39.765625 17.238281 40.957031 17.578125 42.292969 17.519531 C 43.628906 17.457031 44.199219 17.207031 45.023438 17.347656 C 45.757812 17.472656 46.5 17.550781 47.242188 17.574219 C 47.285156 17.644531 47.339844 17.925781 46.6875 18.011719 Z M 46.6875 18.011719 "/>
<path style="fill:none;stroke-width:2;stroke-linecap:butt;stroke-linejoin:miter;stroke:rgb(7.45098%,34.117647%,50.588235%);stroke-opacity:1;stroke-miterlimit:10;" d="M 230.349006 115.989117 C 230.349006 179.149108 179.142998 230.352887 115.989499 230.352887 C 52.836 230.352887 1.629991 179.149108 1.629991 115.989117 C 1.629991 52.829125 52.836 1.625346 115.989499 1.625346 C 179.142998 1.625346 230.349006 52.829125 230.349006 115.989117 Z M 230.349006 115.989117 " transform="matrix(0.22527,0,0,0.225432,0,0.0320324)"/>
<path style=" stroke:none;fill-rule:nonzero;fill:rgb(5.882353%,52.941176%,57.647059%);fill-opacity:1;" d="M 14.527344 49.03125 C 14.414062 48.988281 14.308594 48.929688 14.214844 48.859375 C 13.960938 48.703125 13.765625 48.476562 13.648438 48.203125 C 13.53125 47.980469 13.5625 47.980469 13.277344 47.980469 C 12.984375 47.953125 12.703125 47.855469 12.460938 47.691406 C 12.175781 47.542969 11.933594 47.328125 11.75 47.066406 C 11.636719 46.867188 11.664062 46.894531 11.351562 46.753906 C 11.238281 46.699219 11.152344 46.601562 11.117188 46.480469 C 11.078125 46.363281 11.09375 46.234375 11.152344 46.125 C 11.238281 46.011719 11.40625 46.070312 11.722656 46.183594 C 12.035156 46.300781 12.207031 46.296875 12.773438 46.328125 C 13.183594 46.339844 13.59375 46.304688 13.996094 46.210938 C 14.308594 46.15625 14.394531 45.925781 14.648438 45.5 C 14.902344 45.074219 14.960938 44.902344 15.503906 42.769531 C 16.042969 40.632812 17.039062 39.164062 17.605469 38.585938 C 18.175781 38.007812 18.175781 38.015625 18.6875 37.105469 C 19.199219 36.195312 19.425781 35.65625 19.882812 34.089844 C 20.285156 32.765625 20.847656 31.492188 21.5625 30.304688 C 21.703125 30.078125 21.785156 29.878906 21.875 29.738281 C 21.875 29.707031 21.875 29.679688 21.902344 29.679688 L 21.984375 29.507812 C 21.992188 29.566406 21.980469 29.625 21.957031 29.679688 L 22.242188 29.679688 C 22.265625 29.449219 22.300781 29.226562 22.355469 29.003906 C 22.554688 28.121094 22.867188 27.554688 22.582031 26.613281 C 22.296875 25.671875 22.609375 24.960938 22.636719 24.195312 C 22.664062 23.425781 22.609375 23.484375 22.269531 23 C 21.925781 22.515625 21.472656 20.210938 21.214844 19.328125 C 20.960938 18.449219 20.875 18.425781 20.875 18.425781 C 18.773438 18.171875 18.089844 17.660156 17.660156 17.375 C 17.234375 17.089844 17.292969 17.148438 16.535156 17.03125 C 15.777344 16.914062 15.011719 16.722656 13.675781 15.964844 C 12.621094 15.34375 11.605469 14.65625 10.632812 13.914062 L 10.40625 13.914062 C 9.730469 13.914062 9.128906 13.800781 8.84375 13.515625 C 8.554688 13.234375 8.359375 13.175781 8.21875 13.175781 L 7.589844 13.175781 C 7.277344 13.175781 7.046875 13.003906 7.164062 12.75 C 7.25 12.578125 7.957031 12.550781 8.328125 12.550781 L 8.554688 12.550781 C 8.554688 12.550781 8.242188 12.324219 7.84375 11.980469 C 7.449219 11.636719 7.359375 11.78125 6.792969 11.4375 C 6.421875 11.214844 6.363281 11.042969 6.363281 10.957031 L 5.6875 10.613281 C 5.632812 10.585938 5.546875 10.558594 5.488281 10.527344 C 0.914062 16.636719 -0.71875 24.460938 1.023438 31.890625 C 2.769531 39.324219 7.714844 45.597656 14.527344 49.03125 Z M 8.128906 19.09375 C 7.730469 18.894531 7.558594 18.953125 7.417969 19.007812 C 7.277344 19.066406 7.105469 19.121094 6.820312 19.234375 C 6.539062 19.347656 6.253906 19.261719 6.28125 18.976562 C 6.308594 18.691406 7.53125 18.300781 7.53125 18.300781 C 7.53125 18.300781 7.164062 18.1875 6.679688 18.015625 C 6.195312 17.84375 6.136719 18.015625 5.484375 17.902344 C 4.832031 17.792969 4.914062 17.535156 4.914062 17.535156 C 5.660156 17.515625 6.402344 17.4375 7.132812 17.308594 C 7.957031 17.164062 8.527344 17.449219 9.863281 17.507812 C 11.199219 17.5625 12.394531 17.222656 14.527344 17.082031 C 14.925781 17.050781 15.296875 17.050781 15.652344 17.050781 C 15.992188 17.136719 16.28125 17.195312 16.554688 17.25 C 16.65625 17.273438 16.761719 17.285156 16.867188 17.28125 C 17.292969 17.335938 17.292969 17.335938 17.578125 17.535156 L 17.632812 17.5625 C 18.085938 17.847656 18.800781 18.363281 20.789062 18.617188 C 20.816406 18.730469 20.902344 18.929688 21.011719 19.355469 C 21.050781 19.46875 21.078125 19.582031 21.097656 19.699219 C 20.789062 19.527344 20.53125 19.667969 20.046875 19.753906 C 19.277344 19.933594 18.476562 19.914062 17.714844 19.699219 C 17.203125 19.582031 17.289062 19.613281 16.519531 19.753906 C 15.753906 19.898438 14.988281 20.011719 13.480469 19.785156 C 12.28125 19.570312 11.09375 19.285156 9.925781 18.929688 C 9.210938 19.121094 8.527344 19.292969 8.128906 19.09375 Z M 8.128906 19.09375 "/>
<path style="fill-rule:nonzero;fill:rgb(100%,100%,100%);fill-opacity:1;stroke-width:1.5;stroke-linecap:butt;stroke-linejoin:miter;stroke:rgb(7.45098%,34.117647%,50.588235%);stroke-opacity:1;stroke-miterlimit:10;" d="M 136.598903 91.948257 C 136.737626 92.450764 136.98039 92.693354 137.223155 92.693354 C 137.48326 92.693354 137.48326 92.572059 137.604642 92.450764 C 137.604642 92.831977 137.743365 93.21319 137.743365 93.455779 C 137.98613 95.725727 138.246235 96.730742 139.494739 98.116969 C 141.506218 100.126999 142.910785 101.028047 144.818221 101.028047 C 146.708318 101.028047 147.956822 100.265622 149.985641 98.238264 C 151.234145 96.973332 151.49425 95.847022 151.754355 93.577074 C 151.754355 93.317157 151.875738 92.935944 151.875738 92.572059 C 151.99712 92.693354 152.135843 92.831977 152.257225 92.831977 C 152.378607 92.831977 152.760095 92.572059 152.881477 92.069552 C 153.072221 91.081865 153.314985 90.111506 153.644452 89.175802 C 154.147322 87.529657 153.765834 87.027149 153.52307 86.888527 C 153.419027 86.801887 153.280305 86.749904 153.141582 86.767232 C 152.812116 86.784559 152.482649 86.923182 152.257225 87.148444 C 152.378607 85.623594 152.378607 83.856154 152.378607 82.106042 C 152.378607 76.803721 146.188108 75.902673 144.818221 75.902673 C 143.430995 75.902673 137.223155 76.665099 137.223155 82.106042 C 137.223155 83.994777 137.223155 85.623594 137.361878 87.148444 C 137.119113 86.923182 136.806987 86.784559 136.47752 86.767232 C 136.338798 86.749904 136.200075 86.801887 136.096033 86.888527 C 135.835928 87.148444 135.454441 87.529657 135.974651 89.175802 C 136.47752 90.804619 136.47752 91.185832 136.598903 91.948257 Z M 161.725048 252.248142 C 160.30314 251.329766 159.002615 250.272767 157.806132 249.094474 C 156.817733 248.089459 157.68475 246.183396 157.303262 244.173366 C 156.921775 242.146009 156.921775 241.383584 158.447725 234.833658 C 159.869632 229.132798 160.632607 223.293314 160.701968 217.401847 C 160.701968 211.856937 158.933254 209.465695 158.811872 207.195747 C 158.70783 204.9258 158.933254 202.395935 158.811872 198.861054 C 158.673149 195.776698 158.881233 192.675014 159.453464 189.642641 C 160.077716 185.483959 160.840691 179.800426 161.34356 172.349453 C 161.84643 164.89848 161.586325 159.734783 160.701968 155.801362 C 159.834951 151.885269 158.551767 149.372732 159.713569 145.214049 C 160.858031 141.038039 159.574846 137.884371 159.453464 134.488114 C 159.332082 131.074529 159.574846 131.334446 161.100796 129.185794 C 162.626745 127.037141 164.638224 116.813713 165.904068 112.89762 C 167.169913 108.981528 167.412678 108.894888 167.412678 108.894888 C 176.741778 107.907201 179.915059 105.619926 181.805155 104.354993 C 183.695252 103.072733 183.435147 103.349978 186.851193 102.847471 C 190.267239 102.327636 193.544562 101.582538 199.596339 98.290248 C 204.260889 95.552449 208.769376 92.537404 213.10446 89.297097 L 214.092859 89.297097 C 217.092737 89.297097 219.780488 88.794589 221.098354 87.529657 C 222.416219 86.264724 223.196534 86.004807 223.820786 86.004807 L 226.59524 86.004807 C 227.982467 86.004807 229.005546 85.242381 228.485336 84.116072 C 228.103849 83.353646 224.965248 83.215024 223.317917 83.215024 L 222.312177 83.215024 C 222.312177 83.215024 223.716744 82.227337 225.468118 80.702486 C 227.236832 79.177636 227.757042 79.818766 230.271391 78.432539 C 232.785739 77.046311 232.161487 75.902673 232.161487 75.902673 C 229.022887 76.925016 225.814925 77.722097 222.572282 78.293916 C 218.913472 78.935046 216.884652 81.083699 211.457128 83.215024 C 206.029603 85.363676 200.463356 85.866184 191.39436 88.534672 C 185.914815 90.128833 180.730055 92.554732 175.996143 95.725727 C 174.348811 95.483137 172.666799 95.361842 171.002127 95.344514 C 161.152817 95.344514 157.494006 100.404245 156.366884 100.404245 C 155.482527 100.404245 153.367006 98.7581 151.945099 97.614462 C 151.650313 98.116969 151.320847 98.584821 150.93936 99.018017 C 148.667776 101.287965 147.037784 102.171685 144.887583 102.171685 C 142.754722 102.171685 140.968667 101.16667 138.697083 98.896722 C 138.332936 98.463526 137.98613 97.995675 137.691344 97.493167 C 136.182735 98.896722 134.032533 100.404245 133.165517 100.404245 C 132.021054 100.404245 128.483626 95.22322 118.512934 95.22322 C 116.830921 95.240547 115.166249 95.361842 113.501577 95.604432 C 108.732985 92.416109 103.496204 89.938227 97.999318 88.274754 C 88.912982 85.623594 83.346735 85.138414 77.936551 82.851139 C 72.509026 80.563863 70.480207 78.553834 66.925438 77.843392 C 63.682795 77.236917 60.474834 76.387853 57.336233 75.313527 C 57.336233 75.313527 56.711981 76.318542 59.226329 77.843392 C 61.758018 79.38557 62.139506 78.605817 63.90822 80.234634 C 65.659594 81.88078 67.064161 82.7645 67.064161 82.7645 L 66.0064 82.7645 C 64.359068 82.7645 61.203128 82.885795 60.82164 83.64822 C 60.31877 84.791857 61.32451 85.554283 62.711737 85.554283 L 65.503531 85.554283 C 66.127783 85.554283 66.873417 85.554283 68.277984 87.061805 C 69.526488 88.326738 72.1969 88.829245 75.266139 88.829245 L 76.271878 88.829245 C 80.589622 92.121535 85.115449 95.153908 89.779999 97.926363 C 95.710394 101.201326 99.12644 102.085046 102.403763 102.587553 C 105.681086 103.107389 105.559704 102.847471 107.397779 104.095076 C 109.235855 105.360008 112.391796 107.647284 121.668875 108.773594 C 121.668875 108.773594 122.033022 108.773594 123.177484 112.776325 C 124.321946 116.76173 126.333425 126.915846 127.842034 129.047171 C 129.367983 131.195824 129.628088 131.057201 129.489366 134.366819 C 129.367983 137.676437 127.980756 140.916744 129.246601 145.075427 C 130.495105 149.234109 129.107878 151.763974 128.240862 155.697395 C 127.373845 159.613488 127.096399 164.777185 127.616609 172.228158 C 127.894055 178.015658 128.483626 183.78583 129.385324 189.521346 C 129.940214 192.553719 130.148298 195.638075 130.009576 198.722432 C 129.888193 202.257312 130.009576 204.787177 129.888193 207.057125 C 129.749471 209.327072 127.998097 211.614348 127.998097 217.29788 C 127.963416 223.154692 128.69171 229.011503 130.148298 234.695036 C 131.656907 241.383584 131.535525 242.024714 131.136697 244.173366 C 130.75521 246.304691 131.656907 248.176098 130.633828 249.094474 C 129.454685 250.272767 128.13682 251.329766 126.732252 252.248142 C 124.738114 253.513074 123.576311 254.015582 123.819076 254.778007 C 124.061841 255.523104 125.813215 256.285529 127.998097 256.92666 C 128.639689 257.117266 129.315962 257.203905 129.992235 257.169249 C 131.362122 257.203905 132.714668 256.857348 133.893811 256.164234 C 134.934231 255.471121 136.182735 255.107236 137.431239 255.176547 C 139.078571 255.176547 139.58144 254.67404 139.58144 253.530402 C 139.58144 252.386764 138.818466 251.260455 138.072831 249.995522 C 137.361878 249.111802 137.171134 247.916181 137.552621 246.841854 C 137.934109 245.715545 137.812726 245.455627 137.691344 243.844137 C 137.569962 242.232648 137.812726 235.128232 137.812726 231.835941 C 137.812726 228.543651 139.078571 226.152409 139.806865 223.258659 C 140.483138 220.226286 140.656541 217.124602 140.327075 214.040246 C 140.10165 212.151511 140.153671 210.245448 140.448457 208.356713 C 140.812604 205.584258 141.575579 201.668165 142.338554 197.12827 C 143.101528 193.177522 143.465675 189.157462 143.465675 185.137402 C 143.465675 180.458884 143.985885 174.896646 144.471415 174.896646 C 144.956944 174.896646 145.355772 180.458884 145.355772 185.137402 C 145.25173 189.157462 145.581196 193.177522 146.361511 197.12827 C 147.107146 201.668165 147.87012 205.584258 148.251608 208.356713 C 148.633095 211.129168 148.754477 211.267791 148.37299 214.040246 C 147.991503 217.107274 148.130225 220.226286 148.754477 223.258659 C 149.517452 226.152409 150.644574 228.560979 150.644574 231.835941 C 150.644574 235.128232 150.765956 242.197992 150.644574 243.844137 C 150.523192 245.490283 150.401809 245.732872 150.765956 246.841854 C 151.199465 247.933509 150.93936 249.163785 150.141704 249.995522 C 149.39607 251.260455 148.494372 252.26547 148.633095 253.530402 C 148.754477 254.795335 149.257347 255.176547 150.765956 255.176547 C 152.031801 255.107236 153.262964 255.471121 154.303385 256.164234 C 155.517208 256.822693 156.852414 257.151922 158.2223 257.169249 C 158.898573 257.151922 159.557506 257.065282 160.216439 256.92666 C 162.36664 256.285529 164.135354 255.661727 164.395459 254.778007 C 164.655564 253.876959 163.736527 253.634369 161.725048 252.248142 Z M 102.004935 114.786355 C 105.282258 114.02393 105.004813 113.902635 107.293737 114.543766 C 110.675102 115.496797 114.229871 115.583436 117.645917 114.786355 C 119.657396 114.405143 120.92324 113.78134 122.327807 114.543766 L 121.998341 113.001587 C 121.495471 111.112852 121.113984 110.229132 120.992602 109.726625 C 112.166371 108.582987 108.871708 106.434335 106.998952 105.048107 L 106.756187 104.926812 C 105.837149 104.216371 104.744708 103.81783 103.582906 103.783174 C 103.201418 103.783174 102.837271 103.66188 102.195679 103.66188 C 100.843133 103.523257 99.490587 103.228683 98.207402 102.778159 C 96.681452 102.778159 94.912738 102.778159 93.196045 102.899454 C 83.745563 103.540585 78.42208 105.048107 72.491685 104.805517 C 66.578631 104.5456 64.046942 103.401962 60.388132 103.904469 C 57.128149 104.476288 53.833485 104.822845 50.538822 104.909484 C 50.538822 104.909484 50.296057 106.053122 53.05317 106.555629 C 55.827624 107.075465 56.053048 106.295712 58.359313 107.058137 C 60.665577 107.820562 62.000783 108.357725 62.000783 108.357725 C 62.000783 108.357725 56.573258 110.125165 56.451876 111.355442 C 56.330494 112.585719 57.578998 112.862965 58.844842 112.481752 C 60.128027 112.117867 60.856321 111.736655 61.497913 111.494065 C 62.156846 111.251475 62.88514 111.112852 64.653854 111.875278 C 66.422568 112.637703 69.457127 112.117867 72.73445 110.73164 C 77.90187 112.308474 83.173332 113.573406 88.514155 114.526438 C 95.328906 115.929993 98.727612 115.548781 102.004935 114.786355 Z M 238.820176 105.793204 C 235.525512 105.706565 232.230849 105.360008 228.988206 104.788189 C 225.312055 104.164387 222.797707 105.411992 216.867312 105.550615 C 210.936918 105.671909 205.630775 104.164387 196.162953 103.557912 C 194.394238 103.41929 192.746907 103.41929 191.116915 103.41929 C 189.79905 103.765847 188.463844 104.025764 187.111298 104.181715 C 186.660449 104.268354 186.19226 104.320338 185.724071 104.30301 C 184.562269 104.285682 183.452487 104.70155 182.56813 105.446647 L 182.308025 105.567942 C 180.313887 106.832875 177.001883 109.102823 168.314375 110.107837 C 168.192993 110.610345 167.811505 111.494065 167.308636 113.3828 C 167.152573 113.885307 167.03119 114.405143 166.944489 114.90765 C 168.314375 114.145225 169.458837 114.786355 171.609039 115.167568 C 175.025085 115.947321 178.579853 115.860682 181.961218 114.90765 C 184.232802 114.405143 183.851315 114.526438 187.267361 115.288863 C 190.666066 116.051288 194.064772 116.415173 200.758141 115.410158 C 206.081624 114.474454 211.353086 113.261505 216.537846 111.753983 C 219.693787 113.001587 222.849728 113.746685 224.618442 112.89762 C 226.387156 112.031228 227.150131 112.25649 227.774383 112.516408 C 228.415975 112.758998 229.161609 113.001587 230.427454 113.504095 C 231.693298 114.006602 232.941802 113.62539 232.83776 112.516408 C 232.716378 111.390098 227.271513 109.501363 227.271513 109.501363 C 227.271513 109.501363 228.901504 108.998855 231.051706 108.253758 C 233.201907 107.508661 233.462012 108.253758 236.357848 107.733923 C 239.097621 107.006153 238.837516 105.82786 238.837516 105.82786 Z M 126.125341 172.349453 C 125.743853 167.54964 125.830555 162.7325 126.385446 157.967343 C 125.865236 158.95503 125.379706 159.960045 124.478009 161.623518 C 121.322068 166.891182 118.807719 172.522732 117.004325 178.414198 C 114.992846 185.345336 114.004447 187.753906 111.698182 191.791294 C 109.374577 195.828682 109.426598 195.794026 106.894909 198.358547 C 104.380561 200.90574 99.958776 207.57696 97.565809 216.916668 C 95.155503 226.256376 94.99944 227.122768 93.802957 228.994175 C 92.623814 230.865582 92.294348 231.783958 90.907121 232.165171 C 89.138407 232.563711 87.300331 232.736989 85.479596 232.667678 C 82.947907 232.546383 82.202273 232.546383 80.815046 232.026548 C 79.427819 231.52404 78.664845 231.28145 78.283357 231.783958 C 78.005912 232.269138 77.953891 232.840956 78.127294 233.360792 C 78.283357 233.897955 78.664845 234.331151 79.167714 234.556413 C 80.554941 235.197543 80.433559 235.05892 80.936428 235.942641 C 81.716744 237.138262 82.809185 238.108621 84.092369 238.715096 C 85.18481 239.460193 86.433315 239.893389 87.75118 239.997356 C 88.895642 240.118651 88.756919 240.118651 89.398512 241.002371 C 89.918722 242.197992 90.803079 243.220335 91.91286 243.896121 C 93.560192 245.039759 94.565932 245.161054 95.450289 244.398628 C 96.334646 243.636203 96.976238 242.405926 96.976238 240.118651 C 96.976238 237.814048 97.09762 236.826361 97.843255 235.682723 C 98.60623 234.556413 100.374944 230.692304 102.022275 227.10544 C 103.669607 223.535904 104.675347 221.421907 107.43246 218.406862 C 110.206913 215.37449 112.738602 213.728345 114.507316 209.309744 C 116.276031 204.891144 116.154648 204.007424 117.663257 202.239984 C 118.668997 201.113674 119.483992 199.831414 120.073564 198.462514 C 120.697816 197.197581 121.200686 196.816369 123.212164 194.546421 C 124.616732 193.021571 126.385446 190.872918 127.894055 188.862888 C 126.905656 183.404618 126.316084 177.894363 126.125341 172.349453 Z M 207.676935 232.563711 C 206.272368 233.066218 205.526733 233.066218 202.995044 233.066218 C 201.174309 233.170185 199.336234 232.962251 197.56752 232.425088 C 196.180293 232.043876 195.798805 231.177483 194.654343 229.271421 C 193.527222 227.382686 193.284457 226.637588 190.87415 217.159258 C 188.481184 207.698255 184.198122 200.992379 181.666433 198.479842 C 179.134744 195.967304 179.134744 195.949977 176.86316 191.912589 C 174.591576 187.875201 173.585837 185.483959 171.574358 178.414198 C 169.840324 172.488076 167.377997 166.804543 164.239396 161.484895 C 163.355039 159.977372 162.85217 158.833735 162.3493 157.82872 C 162.85217 162.611205 162.904191 167.428345 162.488023 172.228158 C 162.106535 178.032986 161.586325 183.456601 160.701968 189.001511 C 162.227918 191.167492 163.996632 193.298816 165.245136 194.823667 C 167.256615 197.093614 167.776825 197.474827 168.418417 198.722432 C 168.990648 200.108659 169.805644 201.39092 170.811383 202.517229 C 172.319992 204.28467 172.319992 205.16839 173.967324 209.708285 C 175.597316 214.24818 178.267727 215.894325 180.903458 218.805403 C 183.175042 221.369924 184.961096 224.315657 186.2096 227.50398 C 187.856932 231.177483 189.625646 235.076248 190.371281 236.219886 C 191.116915 237.363524 191.134255 238.368539 191.255638 240.638486 C 191.203617 242.21532 191.741167 243.74017 192.764247 244.935792 C 193.665944 245.698217 194.654343 245.559594 196.301675 244.415956 C 197.394116 243.757498 198.261133 242.787139 198.833364 241.643501 C 199.336234 240.759781 199.214851 240.759781 200.463356 240.655814 C 201.781221 240.534519 203.029725 240.101323 204.122166 239.390881 C 205.388011 238.732423 206.480452 237.779392 207.295447 236.618426 C 207.798317 235.717379 207.676935 235.856001 209.046821 235.214871 C 209.549691 234.989609 209.931178 234.556413 210.104582 234.01925 C 210.260645 233.499415 210.208624 232.927596 209.948519 232.442416 C 209.809796 231.922581 208.925439 232.182498 207.676935 232.563711 Z M 207.676935 232.563711 " transform="matrix(0.22527,0,0,0.225432,-6.462984,-6.271045)"/>
<path style="fill-rule:nonzero;fill:rgb(100%,100%,100%);fill-opacity:1;stroke-width:1.5;stroke-linecap:butt;stroke-linejoin:miter;stroke:rgb(100%,100%,100%);stroke-opacity:1;stroke-miterlimit:10;" d="M 136.598903 91.948257 C 136.737626 92.450764 136.98039 92.693354 137.223155 92.693354 C 137.48326 92.693354 137.48326 92.572059 137.604642 92.450764 C 137.604642 92.831977 137.743365 93.21319 137.743365 93.455779 C 137.98613 95.725727 138.246235 96.730742 139.494739 98.116969 C 141.506218 100.126999 142.910785 101.028047 144.818221 101.028047 C 146.708318 101.028047 147.956822 100.265622 149.985641 98.238264 C 151.234145 96.973332 151.49425 95.847022 151.754355 93.577074 C 151.754355 93.317157 151.875738 92.935944 151.875738 92.572059 C 151.99712 92.693354 152.135843 92.831977 152.257225 92.831977 C 152.378607 92.831977 152.760095 92.572059 152.881477 92.069552 C 153.072221 91.081865 153.314985 90.111506 153.644452 89.175802 C 154.147322 87.529657 153.765834 87.027149 153.52307 86.888527 C 153.419027 86.801887 153.280305 86.749904 153.141582 86.767232 C 152.812116 86.784559 152.482649 86.923182 152.257225 87.148444 C 152.378607 85.623594 152.378607 83.856154 152.378607 82.106042 C 152.378607 76.803721 146.188108 75.902673 144.818221 75.902673 C 143.430995 75.902673 137.223155 76.665099 137.223155 82.106042 C 137.223155 83.994777 137.223155 85.623594 137.361878 87.148444 C 137.119113 86.923182 136.806987 86.784559 136.47752 86.767232 C 136.338798 86.749904 136.200075 86.801887 136.096033 86.888527 C 135.835928 87.148444 135.454441 87.529657 135.974651 89.175802 C 136.47752 90.804619 136.47752 91.185832 136.598903 91.948257 Z M 161.725048 252.248142 C 160.30314 251.329766 159.002615 250.272767 157.806132 249.094474 C 156.817733 248.089459 157.68475 246.183396 157.303262 244.173366 C 156.921775 242.146009 156.921775 241.383584 158.447725 234.833658 C 159.869632 229.132798 160.632607 223.293314 160.701968 217.401847 C 160.701968 211.856937 158.933254 209.465695 158.811872 207.195747 C 158.70783 204.9258 158.933254 202.395935 158.811872 198.861054 C 158.673149 195.776698 158.881233 192.675014 159.453464 189.642641 C 160.077716 185.483959 160.840691 179.800426 161.34356 172.349453 C 161.84643 164.89848 161.586325 159.734783 160.701968 155.801362 C 159.834951 151.885269 158.551767 149.372732 159.713569 145.214049 C 160.858031 141.038039 159.574846 137.884371 159.453464 134.488114 C 159.332082 131.074529 159.574846 131.334446 161.100796 129.185794 C 162.626745 127.037141 164.638224 116.813713 165.904068 112.89762 C 167.169913 108.981528 167.412678 108.894888 167.412678 108.894888 C 176.741778 107.907201 179.915059 105.619926 181.805155 104.354993 C 183.695252 103.072733 183.435147 103.349978 186.851193 102.847471 C 190.267239 102.327636 193.544562 101.582538 199.596339 98.290248 C 204.260889 95.552449 208.769376 92.537404 213.10446 89.297097 L 214.092859 89.297097 C 217.092737 89.297097 219.780488 88.794589 221.098354 87.529657 C 222.416219 86.264724 223.196534 86.004807 223.820786 86.004807 L 226.59524 86.004807 C 227.982467 86.004807 229.005546 85.242381 228.485336 84.116072 C 228.103849 83.353646 224.965248 83.215024 223.317917 83.215024 L 222.312177 83.215024 C 222.312177 83.215024 223.716744 82.227337 225.468118 80.702486 C 227.236832 79.177636 227.757042 79.818766 230.271391 78.432539 C 232.785739 77.046311 232.161487 75.902673 232.161487 75.902673 C 229.022887 76.925016 225.814925 77.722097 222.572282 78.293916 C 218.913472 78.935046 216.884652 81.083699 211.457128 83.215024 C 206.029603 85.363676 200.463356 85.866184 191.39436 88.534672 C 185.914815 90.128833 180.730055 92.554732 175.996143 95.725727 C 174.348811 95.483137 172.666799 95.361842 171.002127 95.344514 C 161.152817 95.344514 157.494006 100.404245 156.366884 100.404245 C 155.482527 100.404245 153.367006 98.7581 151.945099 97.614462 C 151.650313 98.116969 151.320847 98.584821 150.93936 99.018017 C 148.667776 101.287965 147.037784 102.171685 144.887583 102.171685 C 142.754722 102.171685 140.968667 101.16667 138.697083 98.896722 C 138.332936 98.463526 137.98613 97.995675 137.691344 97.493167 C 136.182735 98.896722 134.032533 100.404245 133.165517 100.404245 C 132.021054 100.404245 128.483626 95.22322 118.512934 95.22322 C 116.830921 95.240547 115.166249 95.361842 113.501577 95.604432 C 108.732985 92.416109 103.496204 89.938227 97.999318 88.274754 C 88.912982 85.623594 83.346735 85.138414 77.936551 82.851139 C 72.509026 80.563863 70.480207 78.553834 66.925438 77.843392 C 63.682795 77.236917 60.474834 76.387853 57.336233 75.313527 C 57.336233 75.313527 56.711981 76.318542 59.226329 77.843392 C 61.758018 79.38557 62.139506 78.605817 63.90822 80.234634 C 65.659594 81.88078 67.064161 82.7645 67.064161 82.7645 L 66.0064 82.7645 C 64.359068 82.7645 61.203128 82.885795 60.82164 83.64822 C 60.31877 84.791857 61.32451 85.554283 62.711737 85.554283 L 65.503531 85.554283 C 66.127783 85.554283 66.873417 85.554283 68.277984 87.061805 C 69.526488 88.326738 72.1969 88.829245 75.266139 88.829245 L 76.271878 88.829245 C 80.589622 92.121535 85.115449 95.153908 89.779999 97.926363 C 95.710394 101.201326 99.12644 102.085046 102.403763 102.587553 C 105.681086 103.107389 105.559704 102.847471 107.397779 104.095076 C 109.235855 105.360008 112.391796 107.647284 121.668875 108.773594 C 121.668875 108.773594 122.033022 108.773594 123.177484 112.776325 C 124.321946 116.76173 126.333425 126.915846 127.842034 129.047171 C 129.367983 131.195824 129.628088 131.057201 129.489366 134.366819 C 129.367983 137.676437 127.980756 140.916744 129.246601 145.075427 C 130.495105 149.234109 129.107878 151.763974 128.240862 155.697395 C 127.373845 159.613488 127.096399 164.777185 127.616609 172.228158 C 127.894055 178.015658 128.483626 183.78583 129.385324 189.521346 C 129.940214 192.553719 130.148298 195.638075 130.009576 198.722432 C 129.888193 202.257312 130.009576 204.787177 129.888193 207.057125 C 129.749471 209.327072 127.998097 211.614348 127.998097 217.29788 C 127.963416 223.154692 128.69171 229.011503 130.148298 234.695036 C 131.656907 241.383584 131.535525 242.024714 131.136697 244.173366 C 130.75521 246.304691 131.656907 248.176098 130.633828 249.094474 C 129.454685 250.272767 128.13682 251.329766 126.732252 252.248142 C 124.738114 253.513074 123.576311 254.015582 123.819076 254.778007 C 124.061841 255.523104 125.813215 256.285529 127.998097 256.92666 C 128.639689 257.117266 129.315962 257.203905 129.992235 257.169249 C 131.362122 257.203905 132.714668 256.857348 133.893811 256.164234 C 134.934231 255.471121 136.182735 255.107236 137.431239 255.176547 C 139.078571 255.176547 139.58144 254.67404 139.58144 253.530402 C 139.58144 252.386764 138.818466 251.260455 138.072831 249.995522 C 137.361878 249.111802 137.171134 247.916181 137.552621 246.841854 C 137.934109 245.715545 137.812726 245.455627 137.691344 243.844137 C 137.569962 242.232648 137.812726 235.128232 137.812726 231.835941 C 137.812726 228.543651 139.078571 226.152409 139.806865 223.258659 C 140.483138 220.226286 140.656541 217.124602 140.327075 214.040246 C 140.10165 212.151511 140.153671 210.245448 140.448457 208.356713 C 140.812604 205.584258 141.575579 201.668165 142.338554 197.12827 C 143.101528 193.177522 143.465675 189.157462 143.465675 185.137402 C 143.465675 180.458884 143.985885 174.896646 144.471415 174.896646 C 144.956944 174.896646 145.355772 180.458884 145.355772 185.137402 C 145.25173 189.157462 145.581196 193.177522 146.361511 197.12827 C 147.107146 201.668165 147.87012 205.584258 148.251608 208.356713 C 148.633095 211.129168 148.754477 211.267791 148.37299 214.040246 C 147.991503 217.107274 148.130225 220.226286 148.754477 223.258659 C 149.517452 226.152409 150.644574 228.560979 150.644574 231.835941 C 150.644574 235.128232 150.765956 242.197992 150.644574 243.844137 C 150.523192 245.490283 150.401809 245.732872 150.765956 246.841854 C 151.199465 247.933509 150.93936 249.163785 150.141704 249.995522 C 149.39607 251.260455 148.494372 252.26547 148.633095 253.530402 C 148.754477 254.795335 149.257347 255.176547 150.765956 255.176547 C 152.031801 255.107236 153.262964 255.471121 154.303385 256.164234 C 155.517208 256.822693 156.852414 257.151922 158.2223 257.169249 C 158.898573 257.151922 159.557506 257.065282 160.216439 256.92666 C 162.36664 256.285529 164.135354 255.661727 164.395459 254.778007 C 164.655564 253.876959 163.736527 253.634369 161.725048 252.248142 Z M 102.004935 114.786355 C 105.282258 114.02393 105.004813 113.902635 107.293737 114.543766 C 110.675102 115.496797 114.229871 115.583436 117.645917 114.786355 C 119.657396 114.405143 120.92324 113.78134 122.327807 114.543766 L 121.998341 113.001587 C 121.495471 111.112852 121.113984 110.229132 120.992602 109.726625 C 112.166371 108.582987 108.871708 106.434335 106.998952 105.048107 L 106.756187 104.926812 C 105.837149 104.216371 104.744708 103.81783 103.582906 103.783174 C 103.201418 103.783174 102.837271 103.66188 102.195679 103.66188 C 100.843133 103.523257 99.490587 103.228683 98.207402 102.778159 C 96.681452 102.778159 94.912738 102.778159 93.196045 102.899454 C 83.745563 103.540585 78.42208 105.048107 72.491685 104.805517 C 66.578631 104.5456 64.046942 103.401962 60.388132 103.904469 C 57.128149 104.476288 53.833485 104.822845 50.538822 104.909484 C 50.538822 104.909484 50.296057 106.053122 53.05317 106.555629 C 55.827624 107.075465 56.053048 106.295712 58.359313 107.058137 C 60.665577 107.820562 62.000783 108.357725 62.000783 108.357725 C 62.000783 108.357725 56.573258 110.125165 56.451876 111.355442 C 56.330494 112.585719 57.578998 112.862965 58.844842 112.481752 C 60.128027 112.117867 60.856321 111.736655 61.497913 111.494065 C 62.156846 111.251475 62.88514 111.112852 64.653854 111.875278 C 66.422568 112.637703 69.457127 112.117867 72.73445 110.73164 C 77.90187 112.308474 83.173332 113.573406 88.514155 114.526438 C 95.328906 115.929993 98.727612 115.548781 102.004935 114.786355 Z M 238.820176 105.793204 C 235.525512 105.706565 232.230849 105.360008 228.988206 104.788189 C 225.312055 104.164387 222.797707 105.411992 216.867312 105.550615 C 210.936918 105.671909 205.630775 104.164387 196.162953 103.557912 C 194.394238 103.41929 192.746907 103.41929 191.116915 103.41929 C 189.79905 103.765847 188.463844 104.025764 187.111298 104.181715 C 186.660449 104.268354 186.19226 104.320338 185.724071 104.30301 C 184.562269 104.285682 183.452487 104.70155 182.56813 105.446647 L 182.308025 105.567942 C 180.313887 106.832875 177.001883 109.102823 168.314375 110.107837 C 168.192993 110.610345 167.811505 111.494065 167.308636 113.3828 C 167.152573 113.885307 167.03119 114.405143 166.944489 114.90765 C 168.314375 114.145225 169.458837 114.786355 171.609039 115.167568 C 175.025085 115.947321 178.579853 115.860682 181.961218 114.90765 C 184.232802 114.405143 183.851315 114.526438 187.267361 115.288863 C 190.666066 116.051288 194.064772 116.415173 200.758141 115.410158 C 206.081624 114.474454 211.353086 113.261505 216.537846 111.753983 C 219.693787 113.001587 222.849728 113.746685 224.618442 112.89762 C 226.387156 112.031228 227.150131 112.25649 227.774383 112.516408 C 228.415975 112.758998 229.161609 113.001587 230.427454 113.504095 C 231.693298 114.006602 232.941802 113.62539 232.83776 112.516408 C 232.716378 111.390098 227.271513 109.501363 227.271513 109.501363 C 227.271513 109.501363 228.901504 108.998855 231.051706 108.253758 C 233.201907 107.508661 233.462012 108.253758 236.357848 107.733923 C 239.097621 107.006153 238.837516 105.82786 238.837516 105.82786 Z M 126.125341 172.349453 C 125.743853 167.54964 125.830555 162.7325 126.385446 157.967343 C 125.865236 158.95503 125.379706 159.960045 124.478009 161.623518 C 121.322068 166.891182 118.807719 172.522732 117.004325 178.414198 C 114.992846 185.345336 114.004447 187.753906 111.698182 191.791294 C 109.374577 195.828682 109.426598 195.794026 106.894909 198.358547 C 104.380561 200.90574 99.958776 207.57696 97.565809 216.916668 C 95.155503 226.256376 94.99944 227.122768 93.802957 228.994175 C 92.623814 230.865582 92.294348 231.783958 90.907121 232.165171 C 89.138407 232.563711 87.300331 232.736989 85.479596 232.667678 C 82.947907 232.546383 82.202273 232.546383 80.815046 232.026548 C 79.427819 231.52404 78.664845 231.28145 78.283357 231.783958 C 78.005912 232.269138 77.953891 232.840956 78.127294 233.360792 C 78.283357 233.897955 78.664845 234.331151 79.167714 234.556413 C 80.554941 235.197543 80.433559 235.05892 80.936428 235.942641 C 81.716744 237.138262 82.809185 238.108621 84.092369 238.715096 C 85.18481 239.460193 86.433315 239.893389 87.75118 239.997356 C 88.895642 240.118651 88.756919 240.118651 89.398512 241.002371 C 89.918722 242.197992 90.803079 243.220335 91.91286 243.896121 C 93.560192 245.039759 94.565932 245.161054 95.450289 244.398628 C 96.334646 243.636203 96.976238 242.405926 96.976238 240.118651 C 96.976238 237.814048 97.09762 236.826361 97.843255 235.682723 C 98.60623 234.556413 100.374944 230.692304 102.022275 227.10544 C 103.669607 223.535904 104.675347 221.421907 107.43246 218.406862 C 110.206913 215.37449 112.738602 213.728345 114.507316 209.309744 C 116.276031 204.891144 116.154648 204.007424 117.663257 202.239984 C 118.668997 201.113674 119.483992 199.831414 120.073564 198.462514 C 120.697816 197.197581 121.200686 196.816369 123.212164 194.546421 C 124.616732 193.021571 126.385446 190.872918 127.894055 188.862888 C 126.905656 183.404618 126.316084 177.894363 126.125341 172.349453 Z M 207.676935 232.563711 C 206.272368 233.066218 205.526733 233.066218 202.995044 233.066218 C 201.174309 233.170185 199.336234 232.962251 197.56752 232.425088 C 196.180293 232.043876 195.798805 231.177483 194.654343 229.271421 C 193.527222 227.382686 193.284457 226.637588 190.87415 217.159258 C 188.481184 207.698255 184.198122 200.992379 181.666433 198.479842 C 179.134744 195.967304 179.134744 195.949977 176.86316 191.912589 C 174.591576 187.875201 173.585837 185.483959 171.574358 178.414198 C 169.840324 172.488076 167.377997 166.804543 164.239396 161.484895 C 163.355039 159.977372 162.85217 158.833735 162.3493 157.82872 C 162.85217 162.611205 162.904191 167.428345 162.488023 172.228158 C 162.106535 178.032986 161.586325 183.456601 160.701968 189.001511 C 162.227918 191.167492 163.996632 193.298816 165.245136 194.823667 C 167.256615 197.093614 167.776825 197.474827 168.418417 198.722432 C 168.990648 200.108659 169.805644 201.39092 170.811383 202.517229 C 172.319992 204.28467 172.319992 205.16839 173.967324 209.708285 C 175.597316 214.24818 178.267727 215.894325 180.903458 218.805403 C 183.175042 221.369924 184.961096 224.315657 186.2096 227.50398 C 187.856932 231.177483 189.625646 235.076248 190.371281 236.219886 C 191.116915 237.363524 191.134255 238.368539 191.255638 240.638486 C 191.203617 242.21532 191.741167 243.74017 192.764247 244.935792 C 193.665944 245.698217 194.654343 245.559594 196.301675 244.415956 C 197.394116 243.757498 198.261133 242.787139 198.833364 241.643501 C 199.336234 240.759781 199.214851 240.759781 200.463356 240.655814 C 201.781221 240.534519 203.029725 240.101323 204.122166 239.390881 C 205.388011 238.732423 206.480452 237.779392 207.295447 236.618426 C 207.798317 235.717379 207.676935 235.856001 209.046821 235.214871 C 209.549691 234.989609 209.931178 234.556413 210.104582 234.01925 C 210.260645 233.499415 210.208624 232.927596 209.948519 232.442416 C 209.809796 231.922581 208.925439 232.182498 207.676935 232.563711 Z M 207.676935 232.563711 " transform="matrix(0.22527,0,0,0.225432,-6.462984,-6.271045)"/>
<path style="fill:none;stroke-width:3;stroke-linecap:butt;stroke-linejoin:miter;stroke:rgb(100%,100%,100%);stroke-opacity:1;stroke-miterlimit:10;" d="M 230.487729 115.989117 C 230.487729 179.218419 179.229699 230.474182 115.989499 230.474182 C 52.766638 230.474182 1.508609 179.218419 1.508609 115.989117 C 1.508609 52.759814 52.766638 1.504052 115.989499 1.504052 C 179.229699 1.504052 230.487729 52.759814 230.487729 115.989117 Z M 230.487729 115.989117 " transform="matrix(0.22527,0,0,0.225432,0,0.0320324)"/>
</g>
</svg>
